<svg width="41" height="40" viewBox="0 0 41 40" fill="none" xmlns="http://www.w3.org/2000/svg">
<path fill-rule="evenodd" clip-rule="evenodd" d="M11.3122 20.0005C5.06466 20.0005 0 14.9358 0 8.68826V0.000488281H20V20.0005H11.3122ZM4.64912 10.0003H16.8269C16.9928 11.947 16.0569 15.8404 10.9868 15.8404C5.91665 15.8404 4.64912 11.947 4.64912 10.0003Z" fill="#1A1A1A"/>
<path fill-rule="evenodd" clip-rule="evenodd" d="M28.7034 20.0007C34.951 20.0007 40.0156 25.0654 40.0156 31.3129V40.0007H20.0156V20.0007H28.7034ZM35.0441 30.2535C35.1091 31.0162 34.7691 32.1633 33.965 33.1232C33.1703 34.0719 31.9348 34.8217 30.2223 34.8217C28.6858 34.8217 27.3703 34.0744 26.4319 33.1077C25.4841 32.1311 24.9665 30.9791 24.9665 30.2293H24.396C24.396 31.1814 25.0162 32.4683 26.0226 33.505C27.0384 34.5516 28.4934 35.3922 30.2223 35.3922C32.1204 35.3922 33.5105 34.5542 34.4023 33.4895C35.2848 32.4361 35.6926 31.1443 35.6125 30.2051L35.0441 30.2535Z" fill="#1A1A1A"/>
<path fill-rule="evenodd" clip-rule="evenodd" d="M40.0156 20.0005H31.3278C25.0803 20.0005 20.0156 14.9358 20.0156 8.68827V0.000488281H40.0156V20.0005ZM25.3082 6.65624C25.0122 7.00869 24.8947 7.42268 24.9167 7.68068L24.4532 7.72025C24.4189 7.31794 24.5921 6.78576 24.952 6.35713C25.3195 5.91933 25.893 5.57556 26.6705 5.57556C27.3836 5.57556 27.979 5.92142 28.3906 6.34451C28.7944 6.75953 29.0577 7.28765 29.0577 7.70047H28.5925C28.5925 7.45297 28.4133 7.03492 28.0572 6.66886C27.7089 6.31086 27.227 6.04071 26.6705 6.04071C26.0439 6.04071 25.5964 6.31295 25.3082 6.65624ZM32.0454 7.68076C32.0235 7.42244 32.1407 7.0083 32.4354 6.65589C32.7225 6.31264 33.1679 6.04071 33.7914 6.04071C34.3451 6.04071 34.8248 6.31056 35.1717 6.66853C35.5263 7.03449 35.7049 7.45264 35.7049 7.70047H36.1701C36.1701 7.28798 35.908 6.75996 35.5057 6.34483C35.0957 5.92172 34.5023 5.57556 33.7914 5.57556C33.0163 5.57556 32.4448 5.91964 32.0786 6.35748C31.7201 6.78615 31.5478 7.31819 31.582 7.72018L32.0454 7.68076Z" fill="#22B34F"/>
<path fill-rule="evenodd" clip-rule="evenodd" d="M8.68778 20.0007H0V40.0007H20V31.3129C20 25.0654 14.9353 20.0007 8.68778 20.0007ZM8.38504 28.1333C8.38504 29.1649 7.54877 30.0012 6.51717 30.0012C5.48558 30.0012 4.64931 29.1649 4.64931 28.1333C4.64931 27.1017 5.48558 26.2655 6.51717 26.2655C7.54877 26.2655 8.38504 27.1017 8.38504 28.1333ZM15.4324 28.1333C15.4324 29.1649 14.5962 30.0012 13.5646 30.0012C12.533 30.0012 11.6967 29.1649 11.6967 28.1333C11.6967 27.1017 12.533 26.2655 13.5646 26.2655C14.5962 26.2655 15.4324 27.1017 15.4324 28.1333Z" fill="#22B34F"/>
</svg>
