<svg width="102" height="40" viewBox="0 0 102 40" fill="none" xmlns="http://www.w3.org/2000/svg">
<path fill-rule="evenodd" clip-rule="evenodd" d="M17.9942 0.471659C17.845 0.487328 17.4652 0.540302 17.1511 0.586561C16.7217 0.659257 16.2979 0.761722 15.8827 0.893215C15.4493 1.03685 15.0256 1.20832 14.6143 1.40654C14.3002 1.5677 11.8858 3.00845 9.24899 4.59544C6.61222 6.18243 4.21421 7.6851 3.90009 7.92237C3.52521 8.22333 3.16938 8.54727 2.83464 8.89232C2.50183 9.26939 2.19449 9.6682 1.91468 10.0861C1.64536 10.5036 1.40456 10.9388 1.19393 11.3888C0.997911 11.8503 0.83144 12.3238 0.695525 12.8064L0.480644 13.5727C0.443338 23.9273 0.460499 25.859 0.519442 26.2962C0.59064 26.7239 0.68529 27.1473 0.802966 27.5646C0.925754 27.9832 1.07682 28.3931 1.25511 28.7912C1.46822 29.2123 1.70358 29.6218 1.96019 30.0178C2.2433 30.4318 2.55599 30.8248 2.89582 31.1937C3.22183 31.5234 3.56741 31.8331 3.93068 32.1211C4.22913 32.345 6.62118 33.8305 9.25795 35.4249C11.8947 37.0194 14.3092 38.4527 14.6233 38.6138C15.0346 38.8121 15.4583 38.9835 15.8917 39.1272C16.3077 39.2597 16.7312 39.3673 17.1601 39.4495C17.6686 39.5135 18.1808 39.5442 18.6933 39.5413C19.2726 39.5453 19.8508 39.4888 20.4183 39.3726C20.9138 39.2581 21.4005 39.1085 21.8748 38.925C22.2948 38.7552 22.7044 38.5606 23.1014 38.3422C23.3998 38.1662 25.7381 36.7553 28.3137 35.1996C30.8893 33.644 33.2194 32.1831 33.5134 31.9473C33.853 31.6624 34.173 31.3551 34.4714 31.0273C34.7094 30.7587 35.0467 30.3297 35.2302 30.0693C35.459 29.718 35.6687 29.3546 35.8585 28.9807C36.0196 28.6435 36.242 28.0921 36.3569 27.7541C36.485 27.3261 36.5874 26.8909 36.6635 26.4507C36.7553 25.8911 36.7784 24.6801 36.7784 20.0117C36.7784 15.0448 36.7635 14.1629 36.6561 13.5346C36.5789 13.0998 36.4765 12.6698 36.3494 12.2469C36.2502 11.9484 36.0428 11.4418 35.9017 11.1351C35.6984 10.7352 35.4743 10.3462 35.2302 9.96971C34.9024 9.50488 34.5346 9.06949 34.1312 8.66848C33.7547 8.284 33.3441 7.93439 32.9046 7.62392C32.6061 7.43217 30.3141 6.02947 27.8071 4.51934C25.3002 3.0092 23.0932 1.67589 22.9014 1.56024C22.5653 1.38551 22.2198 1.22933 21.8666 1.09243C21.4052 0.91486 20.9314 0.771467 20.4489 0.663411C19.9684 0.568101 19.4817 0.506521 18.9925 0.47912C18.6602 0.457692 18.3269 0.455201 17.9942 0.471659ZM18.9269 1.33417L18.7627 1.32298C18.6553 1.31552 18.2404 1.33044 17.8428 1.36103C17.364 1.40609 16.8899 1.49069 16.4251 1.61396C15.9654 1.75519 15.5165 1.92974 15.0821 2.13624C14.7218 2.31233 12.2767 3.76874 9.63996 5.36319C7.00319 6.95764 4.6574 8.41406 4.4276 8.59014C4.09274 8.86675 3.77529 9.16377 3.47704 9.47951C3.15653 9.82513 2.86201 10.194 2.59588 10.583C2.37908 10.9281 2.18228 11.2853 2.00645 11.6529C1.82304 12.0771 1.66679 12.5124 1.53864 12.9564L1.32375 13.7227C1.32375 26.1828 1.32375 26.3014 1.48492 26.9065C1.59947 27.3093 1.73495 27.7057 1.8908 28.0943C2.04031 28.4496 2.21175 28.7952 2.40413 29.1292C2.58571 29.4325 2.78372 29.7257 2.99729 30.0074C3.28962 30.3596 3.60466 30.6923 3.94038 31.0035C4.62563 31.5975 5.37048 32.1191 6.16306 32.5599C7.04422 33.0963 8.0567 33.6716 8.41633 33.8402C8.86678 34.0445 9.32721 34.226 9.7959 34.3841C10.1943 34.5147 10.8688 34.6908 11.2881 34.7825C12.0447 34.9339 12.8171 34.9905 13.5877 34.9512C14.3834 34.9967 15.1817 34.9426 15.964 34.79C16.4318 34.6908 17.0981 34.5139 17.4563 34.399C17.8144 34.2841 18.3456 34.0692 18.6441 33.9469C19.0251 33.7819 19.3963 33.595 19.7558 33.3873C20.0699 33.2038 20.6452 32.8277 21.0242 32.5442C21.4532 32.2174 21.8651 31.8688 22.2583 31.4996C22.5567 31.2086 22.979 30.7483 23.2088 30.4722C23.4386 30.1962 23.799 29.6978 24.0213 29.3605C24.3101 28.9027 24.5736 28.4295 24.8107 27.9429C25.0174 27.4952 25.3017 26.808 25.4315 26.4096C25.5236 26.1621 25.5879 25.9051 25.6232 25.6434C25.6001 25.6202 25.577 25.6202 25.5621 25.6434C25.5471 25.6665 25.3472 25.9418 25.1099 26.2567C24.8416 26.6108 24.5468 26.944 24.228 27.2535C23.9316 27.5351 23.6165 27.7963 23.2849 28.0354C22.9196 28.2873 22.5352 28.5103 22.1352 28.7024C21.7115 28.8951 21.2765 29.0616 20.8324 29.2008C20.3657 29.3207 19.8924 29.4129 19.4148 29.4769C18.9056 29.537 18.3913 29.5395 17.8816 29.4844C17.4176 29.431 16.9571 29.3518 16.502 29.2471C16.0023 29.0934 15.5154 28.9011 15.0456 28.6718C14.5788 28.4427 14.1298 28.1788 13.7026 27.8825C12.9982 27.3319 12.3783 26.6811 11.8626 25.9508C11.6051 25.5422 11.3722 25.1186 11.165 24.6824C10.9294 24.1722 10.727 23.6473 10.5592 23.111C10.4286 22.6634 10.2525 21.9076 10.1607 21.4248C10.0167 20.6414 9.96019 19.8444 9.99213 19.0484C9.98345 18.3447 10.0141 17.641 10.0839 16.9407C10.1451 16.6034 10.2525 16.0513 10.3368 15.7141C10.4211 15.3768 10.5741 14.8247 10.6897 14.4874C10.8782 13.9522 11.0956 13.4277 11.3411 12.9161C11.6416 12.2959 11.9795 11.6944 12.3528 11.115C12.6669 10.6472 13.1885 9.96523 13.5183 9.58173C13.916 9.14423 14.3356 8.72712 14.7755 8.33199C15.1358 8.01787 15.688 7.58065 16.0021 7.36204C16.3162 7.14342 16.8527 6.80245 17.1899 6.6107C17.6626 6.35021 18.1488 6.11485 18.6463 5.90562C19.2347 5.66543 19.836 5.45818 20.4474 5.28485C20.9764 5.13563 21.7658 4.97074 22.2105 4.90135C22.8853 4.82213 23.5643 4.78451 24.2437 4.78868C24.9152 4.78868 25.7076 4.82674 26.0067 4.8633C26.3059 4.89985 26.5895 4.94761 26.6432 4.94761C26.6969 4.94761 26.7178 4.92448 26.7044 4.88643C26.6909 4.84837 25.7001 4.24327 24.5041 3.52029C23.308 2.7973 22.1165 2.11013 21.8673 1.99523C21.6181 1.88033 21.116 1.7117 20.7556 1.60426C20.3544 1.49119 19.9439 1.41429 19.529 1.37446L18.9269 1.33417ZM26.2597 5.75863C25.572 5.67517 24.8796 5.63754 24.187 5.64597C23.4968 5.65343 22.8305 5.67656 22.7074 5.69223C22.5843 5.7079 22.1016 5.79221 21.6338 5.87652C21.0766 5.9879 20.5263 6.13114 19.9856 6.30554C19.4786 6.47715 18.9806 6.67412 18.4934 6.89571C18.1203 7.0718 17.5122 7.40158 17.1504 7.62392C16.7885 7.84627 16.2916 8.19097 16.0386 8.39018C15.7857 8.5894 15.2873 9.01841 14.9351 9.35566C14.583 9.6929 14.0995 10.2062 13.854 10.5054C13.6085 10.8046 13.2482 11.3023 13.0333 11.6171C12.7353 12.0736 12.464 12.5469 12.2208 13.0348C11.9568 13.5703 11.7239 14.1206 11.5232 14.6829C11.3739 15.1306 11.1859 15.817 11.1016 16.2162C11.0173 16.6154 10.9098 17.2816 10.8718 17.6883C10.8337 18.0949 10.7875 18.509 10.7875 18.5926C10.7875 18.6761 10.8106 18.7455 10.8487 18.7455C11.0405 18.4723 11.2073 18.1824 11.3471 17.8793C11.6134 17.37 11.9125 16.8785 12.2424 16.4079C12.4953 16.0707 12.9632 15.5036 13.2773 15.1395C13.5914 14.7754 14.6337 13.7294 15.5902 12.802C16.5468 11.8745 17.4682 10.9315 17.6368 10.7016C17.782 10.5011 17.961 10.3274 18.1658 10.1883C18.3027 10.123 18.4515 10.0865 18.603 10.0809C18.7579 10.0869 18.91 10.1235 19.0507 10.1883C19.2515 10.33 19.4279 10.5034 19.573 10.7016C19.7416 10.9315 20.4542 11.6671 21.1443 12.3431C21.8345 13.0191 22.7619 13.9301 23.1909 14.374C23.6199 14.818 24.1952 15.4395 24.4593 15.7536C24.7234 16.0677 25.1032 16.6042 25.3181 16.9414C25.533 17.2787 25.8239 17.7621 25.9545 18.0143C26.0851 18.2665 26.2686 18.75 26.3835 19.0872C26.5154 19.5035 26.623 19.927 26.7059 20.3556C26.767 20.716 26.8364 21.4748 26.867 22.0419C26.8914 22.6682 26.876 23.2955 26.8208 23.9198C26.767 24.3876 26.6678 25.0547 26.591 25.4121C26.5141 25.7695 26.338 26.3932 26.2075 26.7916C25.9947 27.3799 25.749 27.9558 25.4718 28.5167C25.1688 29.1097 24.8284 29.6829 24.4526 30.2327C24.079 30.7379 23.6772 31.2217 23.2491 31.6817C22.861 32.0919 22.4519 32.4817 22.0232 32.8493C21.7248 33.0874 21.2264 33.4552 20.9115 33.6701C20.4665 33.9583 20.0059 34.2218 19.532 34.4595C18.984 34.7248 18.421 34.9577 17.8457 35.1571C17.363 35.3182 16.6042 35.5249 16.1595 35.6167C15.378 35.7752 14.5795 35.8344 13.7831 35.7928C13.1514 35.8103 12.5192 35.7924 11.8895 35.7391C11.7052 35.7085 11.5597 35.7085 11.5597 35.7391C12.0914 36.129 12.6455 36.4875 13.2191 36.8127C14.139 37.3723 15.0896 37.9088 15.3343 38.0162C15.6956 38.1716 16.067 38.3022 16.446 38.4072C16.903 38.5311 17.3698 38.6158 17.8413 38.6601C18.3382 38.6907 18.8366 38.6907 19.3335 38.6601C19.8257 38.6208 20.3133 38.5361 20.7899 38.4072C21.251 38.267 21.7001 38.0901 22.1329 37.8782C22.4933 37.7021 24.854 36.2994 27.3833 34.7736C29.9127 33.2478 32.1741 31.8682 32.4039 31.7145C32.7992 31.419 33.1731 31.0962 33.5231 30.7483C33.9105 30.3523 34.2667 29.927 34.5886 29.4762C34.8386 29.0842 35.059 28.6742 35.2481 28.2495C35.4276 27.8113 35.5811 27.3629 35.7077 26.9065L35.892 26.2164V13.8018C35.7227 13.1112 35.5076 12.4328 35.2481 11.7708C35.059 11.3462 34.8385 10.9362 34.5886 10.5442C34.2982 10.1305 33.978 9.73849 33.6306 9.37133C33.255 8.9858 32.8444 8.6361 32.4039 8.32676C32.0436 8.08129 31.4377 7.69853 31.0609 7.47619C30.5914 7.19983 30.1067 6.95023 29.609 6.72858C29.0708 6.5019 28.5206 6.30488 27.9608 6.13841C27.4008 5.98222 26.833 5.85545 26.2597 5.75863ZM18.8731 11.2053C18.7508 11.0441 18.6277 10.9143 18.6045 10.9218C18.4559 11.05 18.3245 11.197 18.2136 11.359C18.0218 11.6045 17.1325 12.5087 16.2356 13.3735C15.3388 14.2382 14.2957 15.2895 13.9227 15.7111C13.5496 16.1326 13.0273 16.7922 12.7654 17.1675C12.4742 17.612 12.2081 18.0726 11.9686 18.5471C11.7719 18.9802 11.6129 19.4296 11.4933 19.8901C11.3788 20.369 11.3232 20.8601 11.3277 21.3524C11.3272 21.7764 11.3521 22.1999 11.4023 22.6208C11.4668 22.9433 11.5503 23.2617 11.6522 23.5744C11.7696 23.9294 11.913 24.2753 12.0812 24.6092C12.2563 24.9536 12.4535 25.2863 12.6714 25.6053C12.9445 25.9601 13.2416 26.2956 13.5608 26.6096C13.9045 26.9348 14.2735 27.2322 14.6643 27.4989C15.0071 27.7169 15.3658 27.909 15.7372 28.0735C16.0629 28.2087 16.3957 28.3262 16.734 28.4256C17.1112 28.5219 17.4958 28.5861 17.8838 28.6174C18.3556 28.6557 18.8296 28.6557 19.3014 28.6174C19.7675 28.5674 20.2288 28.4804 20.681 28.357C21.117 28.2168 21.5411 28.0422 21.9494 27.8347C22.3217 27.637 22.6802 27.4141 23.0223 27.1677C23.3459 26.9057 23.6531 26.6241 23.9422 26.3246C24.2175 26.0262 24.4711 25.7085 24.701 25.374C24.9064 25.054 25.0908 24.721 25.2532 24.3772C25.4193 24.003 25.5625 23.619 25.6822 23.2274C25.842 22.628 25.9017 22.0064 25.859 21.3875C25.9318 20.7251 25.8451 20.0548 25.6061 19.4327C25.4418 18.9767 25.2497 18.5312 25.0308 18.0986C24.7477 17.6096 24.4381 17.1363 24.1034 16.681C23.2286 15.6272 22.2918 14.6263 21.298 13.6839C20.0833 12.4834 18.9925 11.3717 18.8702 11.2105L18.8731 11.2053Z" fill="#222222"/>
<path d="M0.479448 13.5682L0.0377477 13.4481L0.020587 13.5078V13.5705L0.479448 13.5682ZM0.5175 26.2925L0.0623695 26.3567V26.3649L0.5175 26.2925ZM0.801024 27.5609L1.24422 27.4385V27.434V27.4296L0.801024 27.5609ZM1.25317 28.7875L0.836091 28.9807V28.9852V28.989L1.25317 28.7875ZM18.6891 39.545V40.0016H18.6944L18.6891 39.545ZM21.8706 38.9287L21.7042 38.4997H21.7005L21.8706 38.9287ZM23.0972 38.346L23.321 38.7467H23.3248L23.0972 38.346ZM36.3512 27.7526L36.7862 27.9019V27.8974V27.8929L36.3512 27.7526ZM35.8961 11.1344L36.3154 10.9456V10.9389V10.933L35.8961 11.1344ZM22.901 1.561L23.1375 1.1663H23.1315H23.1255L22.901 1.561ZM21.8691 1.09319L21.6952 1.51922H21.699L21.8691 1.09319ZM18.9921 0.479879L18.966 0.93874H18.9749L18.9921 0.479879ZM1.53819 12.9594L1.09649 12.8311V12.8356L1.53819 12.9594ZM1.3233 13.7257L0.880112 13.6018L0.862951 13.663V13.7264L1.3233 13.7257ZM2.40443 29.1322L2.80285 28.9032V28.8987V28.8942L2.40443 29.1322ZM15.9613 34.7893L16.0531 35.2369H16.0568L15.9613 34.7893ZM17.4536 34.3983L17.5931 34.8363H17.5976H17.6021L17.4536 34.3983ZM25.4251 26.4111L25.8623 26.5544V26.5506L25.4251 26.4111ZM25.5556 25.6449L25.1729 25.3897L25.1386 25.4412L25.1192 25.5001L25.5556 25.6449ZM24.2216 27.255L23.912 26.9148L23.9067 26.9192L23.9015 26.9245L24.2216 27.255ZM20.8342 29.2016L20.9566 29.6448H20.9611H20.9655L20.8342 29.2016ZM19.4166 29.4777L19.4681 29.935H19.4748L19.4166 29.4777ZM17.8833 29.4851L17.8333 29.9425H17.8378L17.8833 29.4851ZM16.5038 29.2479L16.3829 29.6918H16.3874H16.3919L16.5038 29.2479ZM10.0872 16.9407L9.63503 16.8586V16.8661V16.8735L10.0872 16.9407ZM10.693 14.4875L11.128 14.6367V14.6322V14.6277L10.693 14.4875ZM26.0085 4.8648L26.0787 4.41042H26.0675L26.0085 4.8648ZM26.7062 4.88793L27.1329 4.71707L27.1262 4.69916L27.118 4.682L26.7062 4.88793ZM21.8691 1.99748L22.0571 1.57667H22.0519H22.0467L21.8691 1.99748ZM24.1917 5.64598V5.18638H24.182L24.1917 5.64598ZM26.2615 5.76088L26.3279 5.30725H26.3234L26.2615 5.76088ZM10.8773 17.6883L11.3347 17.739V17.7316L10.8773 17.6883ZM17.6438 10.7054L17.2835 10.4196L17.2782 10.4263L17.273 10.4331L17.6438 10.7054ZM18.1728 10.1921L18.3571 10.6136L18.3735 10.6062L18.3892 10.598L18.1728 10.1921ZM19.054 10.1921L18.8481 10.6032H18.8533H18.8593L19.054 10.1921ZM19.5763 10.7054L19.9493 10.4331L19.9441 10.4263L19.9389 10.4196L19.5763 10.7054ZM25.9526 18.0196L26.3667 17.8189V17.8136V17.8084L25.9526 18.0196ZM26.7039 20.3609L27.1568 20.2863V20.2773L26.7039 20.3609ZM26.8651 22.0471L27.3247 22.0299V22.0202L26.8651 22.0471ZM26.589 25.4173L27.0367 25.5218V25.5128L26.589 25.4173ZM16.1546 35.6174L16.0613 35.1698H16.0576L16.1546 35.6174ZM13.7782 35.7935V35.3339H13.7745L13.7782 35.7935ZM11.8846 35.7398L11.9823 35.2921H11.9711H11.9599L11.8846 35.7398ZM11.5548 35.7398L12.0025 35.8301L12.0114 35.7853V35.7398H11.5548ZM15.3331 38.017L15.5331 37.6029L15.5249 37.5991H15.5167L15.3331 38.017ZM35.8961 26.2201L36.3437 26.3388L36.3594 26.2806V26.2201H35.8961ZM35.8961 13.8025H36.3557V13.7384L36.34 13.6802L35.8961 13.8025ZM18.6011 10.9277V11.3873H18.6757L18.7466 11.3635L18.6011 10.9277ZM11.4899 19.8953L11.9375 20.005V19.9998L11.4899 19.8953ZM11.4033 22.6171L10.9489 22.6858V22.6917V22.6985L11.4033 22.6171ZM11.6488 23.5751L12.089 23.4408V23.4356V23.4304L11.6488 23.5751ZM12.0778 24.61L12.4912 24.4086V24.4041V24.3996L12.0778 24.61ZM12.668 25.6061L12.2905 25.8687V25.8724L12.668 25.6061ZM16.7306 28.4264L16.8641 27.9862H16.8582H16.8522L16.7306 28.4264ZM17.8804 28.6181L17.9274 28.1608H17.9147L17.8804 28.6181ZM24.6946 25.3778L24.3119 25.1226V25.1263V25.1308L24.6946 25.3778ZM25.6758 23.2312L26.1167 23.3618V23.3535L25.6758 23.2312ZM25.0259 18.1031L25.4333 17.8897V17.886L25.0259 18.1031ZM17.2193 1.04245C17.5364 0.996191 17.9095 0.943962 18.0438 0.929786L17.9475 0.0150486C17.7908 0.0314632 17.3976 0.0896602 17.0857 0.132189L17.2193 1.04245ZM16.0307 1.3312C16.4199 1.20801 16.817 1.11153 17.2193 1.04245L17.0857 0.132189C16.631 0.208732 16.1822 0.317187 15.7427 0.456749L16.0307 1.3312ZM14.8332 1.81692C15.2217 1.62981 15.6217 1.46758 16.0307 1.3312L15.745 0.457495C15.2897 0.608932 14.8449 0.789875 14.4132 0.999175L14.8332 1.81692ZM9.49476 4.99015C12.1442 3.3957 14.537 1.96838 14.8332 1.81692L14.4139 0.996191C14.0811 1.1663 11.6443 2.62123 9.02098 4.20001L9.49476 4.99015ZM4.17645 8.29171C4.31224 8.18949 4.96733 7.76943 5.94997 7.16134C6.91992 6.55997 8.17787 5.78849 9.49551 4.99239L9.01949 4.203C7.69961 5.00059 6.43718 5.77357 5.46499 6.37792C4.50623 6.97482 3.80115 7.42248 3.62209 7.55604L4.17645 8.29171ZM3.1677 9.21242C3.4866 8.88275 3.82548 8.57303 4.18242 8.28499L3.61612 7.55977C3.22206 7.87597 2.84827 8.21662 2.49694 8.57971L3.1677 9.21242ZM2.29773 10.3376C2.56418 9.94229 2.85629 9.56494 3.17218 9.20794L2.49545 8.58493C2.14615 8.97823 1.8236 9.3945 1.52998 9.83095L2.29773 10.3376ZM1.61354 11.5746C1.81376 11.1472 2.04233 10.7344 2.29773 10.3376L1.52998 9.83095C1.24686 10.27 0.994084 10.728 0.773418 11.2016L1.61354 11.5746ZM1.13901 12.9258C1.26869 12.4659 1.42718 12.0146 1.61354 11.5746L0.773418 11.2016C0.56771 11.6848 0.393257 12.1807 0.251137 12.6863L1.13901 12.9258ZM0.923387 13.6951L1.13827 12.9288L0.252629 12.6811L0.0377477 13.4481L0.923387 13.6951ZM0.974123 26.2298C0.948755 26.0508 0.92861 25.5009 0.921895 23.6498C0.915179 21.8195 0.921894 18.7493 0.939801 13.5712H0.0198409C0.00193415 18.7478 -0.00403477 21.8218 0.00268027 23.6557C0.00939531 25.468 0.0273021 26.1022 0.0638618 26.3604L0.974123 26.2298ZM1.24272 27.4236C1.13097 27.0269 1.04081 26.6244 0.97263 26.2179L0.0638618 26.3626C0.138477 26.8105 0.237863 27.2539 0.361562 27.6907L1.24272 27.4236ZM1.67174 28.5875C1.50408 28.2122 1.36176 27.8261 1.24571 27.4318L0.359324 27.6773C0.488913 28.12 0.648708 28.5532 0.837584 28.974L1.67174 28.5875ZM2.34324 29.7545C2.0979 29.3771 1.87251 28.9871 1.66801 28.5861L0.841314 28.989C1.06267 29.4278 1.3075 29.8545 1.57475 30.267L2.34324 29.7545ZM3.22814 30.8736C2.90679 30.5222 2.61106 30.1482 2.34324 29.7545L1.57475 30.267C1.87217 30.7052 2.20134 31.1209 2.55962 31.5108L3.22814 30.8736ZM4.20779 31.7518C3.8625 31.4774 3.53387 31.1827 3.22366 30.8692L2.5641 31.5108C2.90596 31.8559 3.26849 32.1798 3.64969 32.4808L4.20779 31.7518ZM9.49402 35.028C6.84381 33.4254 4.47937 31.954 4.20331 31.7488L3.65417 32.4867C3.97575 32.7262 6.39465 34.2289 9.01799 35.8152L9.49402 35.028ZM14.831 38.2005C14.5325 38.0513 12.145 36.6217 9.49252 35.0273L9.02023 35.8234C11.6443 37.4022 14.0804 38.8571 14.4132 39.0272L14.831 38.2005ZM16.0285 38.6862C15.6195 38.5498 15.2195 38.3875 14.831 38.2005L14.4117 39.0212C14.8434 39.2305 15.2882 39.4114 15.7435 39.5629L16.0285 38.6862ZM17.2282 38.9921C16.8227 38.9137 16.4221 38.8115 16.0285 38.6862L15.7427 39.5607C16.179 39.7 16.6232 39.8129 17.0731 39.8987L17.2282 38.9921ZM18.6839 39.0772C18.1974 39.08 17.7112 39.0516 17.2282 38.9921L17.0738 39.8987C17.6077 39.9673 18.1456 40.0002 18.6839 39.9971V39.0772ZM20.3119 38.919C19.7745 39.0285 19.2271 39.0816 18.6787 39.0772L18.6906 40.0016C19.3006 40.0051 19.9092 39.9451 20.5067 39.8226L20.3119 38.919ZM21.6908 38.4982C21.2411 38.6706 20.7798 38.8112 20.3105 38.919L20.5067 39.8143C21.0278 39.6953 21.5397 39.5389 22.0385 39.3465L21.6908 38.4982ZM22.8652 37.9408C22.4874 38.1483 22.0977 38.3335 21.6982 38.4952L22.031 39.3525C22.4716 39.1747 22.9011 38.9707 23.3173 38.7414L22.8652 37.9408ZM28.0656 34.8072C25.4877 36.3643 23.1539 37.773 22.8569 37.9476L23.324 38.7399C23.6225 38.5616 25.9668 37.15 28.5409 35.5951L28.0656 34.8072ZM33.2138 31.5869C33.1653 31.6265 32.9899 31.7473 32.6803 31.948C32.3819 32.1413 31.9849 32.3957 31.5149 32.6882C30.5748 33.2769 29.3511 34.0312 28.0626 34.8079L28.5379 35.5951C29.8272 34.8161 31.0575 34.0596 32.0028 33.4679C32.4751 33.1694 32.878 32.9165 33.1809 32.7218C33.4727 32.5323 33.6987 32.3808 33.795 32.3017L33.2138 31.5869ZM34.1181 30.7184C33.8361 31.0276 33.534 31.3177 33.2138 31.5869L33.795 32.2995C34.1537 31.9993 34.4917 31.6752 34.8067 31.3295L34.1181 30.7184ZM34.8515 29.8022C34.6769 30.0492 34.3501 30.4655 34.124 30.7207L34.8127 31.3303C35.0619 31.049 35.4096 30.6065 35.6028 30.3327L34.8515 29.8022ZM35.4447 28.7733C35.2642 29.1291 35.0649 29.475 34.8478 29.8097L35.6096 30.3252C35.85 29.9567 36.0702 29.5754 36.2691 29.1829L35.4447 28.7733ZM35.9192 27.6042C35.8095 27.9257 35.5939 28.4607 35.4409 28.7808L36.2714 29.177C36.4407 28.8226 36.6698 28.254 36.7899 27.9011L35.9192 27.6042ZM36.2072 26.3753C36.1348 26.7933 36.0377 27.2067 35.9162 27.6131L36.7929 27.8922C36.9278 27.443 37.0355 26.986 37.1152 26.5238L36.2072 26.3753ZM36.3161 20.0109C36.3161 22.3455 36.3102 23.8117 36.293 24.763C36.2985 25.3017 36.2698 25.8402 36.2072 26.3753L37.1152 26.5238C37.1857 25.9448 37.2184 25.3626 37.213 24.7794C37.2301 23.8184 37.2361 22.344 37.2361 20.0109H36.3161ZM36.1997 13.6115C36.2982 14.1898 36.3161 15.0142 36.3161 20.0109H37.2361C37.2361 15.0739 37.2227 14.1353 37.107 13.4563L36.1997 13.6115ZM35.9087 12.3886C36.0289 12.7909 36.1261 13.1997 36.1997 13.613L37.107 13.4563C37.0262 13 36.9178 12.5488 36.7839 12.1051L35.9087 12.3886ZM35.482 11.3239C35.6163 11.6224 35.817 12.1133 35.9095 12.3924L36.7824 12.1014C36.6758 11.782 36.4624 11.2605 36.3206 10.9464L35.482 11.3239ZM34.8425 10.2234C35.0766 10.583 35.2917 10.9546 35.4872 11.3366L36.3139 10.9337C36.1009 10.5159 35.8658 10.1096 35.6096 9.71679L34.8425 10.2234ZM33.8069 8.9953C34.186 9.37417 34.532 9.78478 34.841 10.2227L35.6096 9.71679C35.2648 9.22403 34.8766 8.76264 34.4508 8.33797L33.8069 8.9953ZM32.6542 8.01192C33.0643 8.30322 33.4478 8.63031 33.8002 8.98933L34.4568 8.34543C34.0562 7.93682 33.6189 7.56593 33.1504 7.23745L32.6542 8.01192ZM27.5694 4.91255C30.0779 6.42418 32.3639 7.82315 32.6557 8.01117L33.1526 7.2367C32.8467 7.04047 30.5486 5.63404 28.0447 4.1254L27.5694 4.91255ZM22.6644 1.95495C22.8555 2.06985 25.0632 3.3957 27.5694 4.91255L28.0447 4.1254C25.537 2.6078 23.33 1.27822 23.1375 1.1663L22.6644 1.95495ZM21.7005 1.52146C22.0336 1.65064 22.3597 1.79759 22.6771 1.96166L23.1248 1.15884C22.7699 0.973514 22.405 0.808117 22.0317 0.663423L21.7005 1.52146ZM20.353 1.11408C20.8099 1.21634 21.2587 1.35174 21.696 1.51922L22.0437 0.6679C21.5567 0.479735 21.0564 0.328103 20.547 0.214262L20.353 1.11408ZM18.9742 0.939486C19.4372 0.965867 19.8979 1.0242 20.353 1.11408L20.5432 0.214262C20.0374 0.113556 19.525 0.0487314 19.01 0.0202714L18.9742 0.939486ZM18.0438 0.929786C18.3511 0.916598 18.6589 0.91909 18.966 0.93874L19.0189 0.0210176C18.6622 -0.00222386 18.3044 -0.00421703 17.9475 0.0150486L18.0438 0.929786ZM18.7294 1.78185L18.8943 1.79304L18.9577 0.87532L18.7951 0.864128L18.7294 1.78185ZM17.8774 1.8199C18.0706 1.80498 18.2683 1.79379 18.4295 1.78707C18.5101 1.78707 18.5787 1.78185 18.6354 1.7811H18.7294L18.7951 0.863382C18.6459 0.852936 18.1982 0.871589 17.8072 0.90218L17.8774 1.8199ZM16.55 2.05642C16.9853 1.94164 17.4292 1.86254 17.8774 1.8199L17.8072 0.905164C17.2975 0.95258 16.7926 1.04268 16.2978 1.17451L16.55 2.05642ZM15.2816 2.54886C15.6921 2.35447 16.116 2.1899 16.55 2.05642L16.2971 1.17227C15.8117 1.32075 15.3379 1.5048 14.8795 1.72291L15.2816 2.54886ZM9.87826 5.75566C12.5307 4.15226 14.9518 2.71226 15.2846 2.54662L14.881 1.72589C14.4967 1.91391 12.0241 3.38749 9.40299 4.97224L9.87826 5.75566ZM4.70843 8.95501C4.79946 8.88487 5.41426 8.49391 6.37451 7.89925C7.3176 7.31504 8.56212 6.55624 9.88125 5.75641L9.40523 4.96926C8.08535 5.76685 6.83859 6.53088 5.89252 7.11732C4.96286 7.69332 4.28986 8.11861 4.15108 8.2253L4.70843 8.95501ZM3.81309 9.79588C4.09434 9.49782 4.39333 9.21701 4.70843 8.95501L4.1481 8.2253C3.79301 8.51623 3.45734 8.82922 3.14159 9.16243L3.81309 9.79588ZM2.98043 10.836C3.2323 10.4697 3.5106 10.1216 3.81309 9.79588L3.14681 9.16168C2.80725 9.52711 2.4955 9.91742 2.21417 10.3294L2.98043 10.836ZM2.42159 11.8522C2.58846 11.5029 2.77504 11.1641 2.98043 10.836L2.21193 10.3294C1.98302 10.6933 1.7755 11.0702 1.59041 11.4582L2.42159 11.8522ZM1.97989 13.087C2.1013 12.6666 2.24882 12.2542 2.42159 11.8522L1.59041 11.4582C1.39668 11.9043 1.23194 12.3623 1.09723 12.8296L1.97989 13.087ZM1.7665 13.8488L1.98138 13.0825L1.09574 12.8348L0.880112 13.6018L1.7665 13.8488ZM1.92915 26.7909C1.79722 26.122 1.75506 25.4385 1.8038 24.7585C1.78366 23.0999 1.78366 19.9595 1.78366 13.7249H0.863697C0.863697 19.955 0.863697 23.1036 0.883843 24.7674C0.834565 25.5236 0.887012 26.283 1.03978 27.0252L1.92915 26.7909ZM2.31564 27.9213C2.1671 27.5504 2.03785 27.1721 1.9284 26.7879L1.04127 27.0297C1.16109 27.4512 1.30304 27.8661 1.46656 28.2727L2.31564 27.9213ZM2.79763 28.8912C2.61733 28.578 2.45637 28.2541 2.31564 27.9213L1.46581 28.2734C1.62442 28.6501 1.80658 29.0164 2.01122 29.3702L2.79763 28.8912ZM3.35945 29.7239C3.15938 29.4604 2.97358 29.1865 2.80285 28.9032L2.006 29.362C2.19679 29.6814 2.40502 29.99 2.62975 30.2864L3.35945 29.7239ZM4.25479 30.664C3.93652 30.3701 3.63746 30.0561 3.35945 29.7239L2.62975 30.2835C2.93717 30.6571 3.26918 31.0098 3.62358 31.3392L4.25479 30.664ZM6.39987 32.1674C5.63421 31.743 4.91438 31.2406 4.25181 30.6685L3.62358 31.3392C4.33163 31.9551 5.10178 32.4964 5.92161 32.9531L6.39987 32.1674ZM8.60912 33.4239C8.27486 33.2672 7.28253 32.7046 6.39987 32.1674L5.92161 32.9531C6.80203 33.4888 7.83316 34.076 8.21965 34.2565L8.60912 33.4239ZM9.93646 33.9461C9.5552 33.8215 8.95159 33.5828 8.60912 33.4239L8.2189 34.2558C8.68631 34.4682 9.16419 34.6574 9.6507 34.8213L9.93646 33.9461ZM11.3862 34.3326C10.9758 34.2431 10.317 34.0707 9.93646 33.9461L9.6507 34.8213C10.0678 34.9579 10.7579 35.1369 11.1899 35.231L11.3862 34.3326ZM13.588 34.4908C12.8502 34.5296 12.1106 34.476 11.3862 34.3311L11.1914 35.2265C11.9801 35.3849 12.7853 35.4451 13.5887 35.4055L13.588 34.4908ZM15.8718 34.3416C15.1206 34.4869 14.354 34.5371 13.5902 34.4908L13.5872 35.41C14.4148 35.456 15.2449 35.3989 16.0583 35.2399L15.8718 34.3416ZM17.3178 33.9581C16.9738 34.0678 16.3217 34.2401 15.8673 34.3371L16.0591 35.2369C16.5396 35.134 17.2215 34.9541 17.5976 34.834L17.3178 33.9581ZM18.4713 33.5186C18.1728 33.6395 17.6573 33.8432 17.3096 33.9611L17.608 34.8318C17.9811 34.7049 18.5198 34.4938 18.8227 34.3699L18.4713 33.5186ZM19.5263 32.9881C19.1855 33.1852 18.8338 33.3625 18.4728 33.5194L18.822 34.3707C19.2228 34.1976 19.6132 34.0013 19.9911 33.7827L19.5263 32.9881ZM20.7462 32.1749C20.3866 32.4465 19.827 32.812 19.5263 32.9881L19.9911 33.7827C20.3194 33.5902 20.9096 33.2045 21.3005 32.909L20.7462 32.1749ZM21.94 31.1698C21.5594 31.5249 21.1609 31.8603 20.7462 32.1749L21.3005 32.909C21.7449 32.5712 22.1715 32.2106 22.5786 31.8287L21.94 31.1698ZM22.8584 30.1775C22.6346 30.4424 22.2272 30.8901 21.94 31.1698L22.5816 31.8287C22.8928 31.5257 23.3277 31.0542 23.5643 30.7662L22.8584 30.1775ZM23.6366 29.1083C23.4232 29.4321 23.0644 29.9186 22.8502 30.1842L23.5665 30.7617C23.797 30.4752 24.1738 29.9656 24.4051 29.6149L23.6366 29.1083ZM24.3962 27.7429C24.1677 28.2114 23.9142 28.6672 23.6366 29.1083L24.4044 29.6142C24.7047 29.1392 24.9787 28.648 25.2251 28.1429L24.3962 27.7429ZM24.9931 26.2671C24.8707 26.6402 24.5946 27.3117 24.3925 27.7489L25.2266 28.1369C25.4385 27.6825 25.7295 26.9744 25.8675 26.5529L24.9931 26.2671ZM25.2967 25.9687C25.2506 25.9226 25.215 25.8671 25.1923 25.806C25.1816 25.7771 25.1741 25.747 25.1699 25.7165C25.1662 25.6918 25.1649 25.6668 25.1662 25.6419C25.1662 25.6255 25.1662 25.6195 25.1662 25.6337C25.1662 25.6478 25.152 25.7023 25.1356 25.768C25.1028 25.8963 25.0513 26.0746 24.9908 26.2701L25.8698 26.5409C25.9324 26.338 25.9884 26.1448 26.0264 25.9948C26.0451 25.9202 26.0615 25.8508 26.072 25.7911C26.0785 25.7551 26.0827 25.7187 26.0846 25.6822C26.0863 25.6483 26.0848 25.6143 26.0802 25.5807C26.066 25.4794 26.0194 25.3854 25.9474 25.3128L25.2967 25.9687ZM25.9429 25.8985C25.9035 25.9564 25.8506 26.0038 25.7887 26.0365C25.7267 26.0691 25.6577 26.0861 25.5877 26.0858C25.4788 26.0869 25.3747 26.0448 25.2967 25.9687L25.9466 25.3181C25.8514 25.2228 25.7224 25.1691 25.5877 25.1688C25.5061 25.1693 25.426 25.19 25.3543 25.2291C25.2827 25.2681 25.2219 25.3243 25.1774 25.3927L25.9429 25.8985ZM25.4751 26.5342C25.5937 26.3768 25.7064 26.2283 25.7899 26.1149C25.8317 26.059 25.8645 26.009 25.8944 25.9717L25.9317 25.9179L25.9518 25.8859C25.9701 25.8552 25.9852 25.8227 25.9966 25.7889L25.1236 25.4979C25.1309 25.4763 25.1399 25.4554 25.1505 25.4352C25.155 25.4255 25.1595 25.4188 25.1609 25.4158L25.1647 25.4098L25.1445 25.4382C25.1229 25.4688 25.0908 25.5128 25.0505 25.5673C24.9692 25.6762 24.8595 25.8224 24.7409 25.9799L25.4751 26.5342ZM24.5357 27.5937C24.8756 27.2652 25.1897 26.911 25.4751 26.5342L24.7409 25.9799C24.4909 26.311 24.2166 26.623 23.9202 26.9133L24.5357 27.5937ZM23.5456 28.4144C23.8976 28.1612 24.2318 27.8842 24.5461 27.5855L23.906 26.9252C23.6277 27.1893 23.332 27.4346 23.0211 27.6594L23.5456 28.4144ZM22.3287 29.1203C22.7549 28.9158 23.1642 28.678 23.5531 28.4092L23.0144 27.6631C22.6724 27.8979 22.313 28.1062 21.9392 28.2861L22.3287 29.1203ZM20.9618 29.6426C21.4278 29.4968 21.8843 29.3224 22.3287 29.1203L21.94 28.2876C21.5369 28.4706 21.123 28.6288 20.7007 28.7614L20.9618 29.6426ZM19.4696 29.9335C19.9691 29.8669 20.4641 29.7705 20.9521 29.6448L20.7066 28.7584C20.261 28.8723 19.8091 28.96 19.3532 29.021L19.4696 29.9335ZM17.8333 29.9425C18.3751 30.0006 18.9217 29.9979 19.4629 29.9343L19.3599 29.0203C18.8829 29.0764 18.4011 29.0787 17.9236 29.027L17.8333 29.9425ZM16.3874 29.6933C16.8628 29.8032 17.3441 29.8861 17.8289 29.9417L17.9289 29.027C17.4856 28.9767 17.0455 28.902 16.6105 28.8032L16.3874 29.6933ZM14.8399 29.0852C15.3361 29.3272 15.8505 29.5298 16.3784 29.691L16.6202 28.8039C16.1489 28.6579 15.6894 28.4761 15.2458 28.26L14.8399 29.0852ZM13.4223 28.251C13.8729 28.5649 14.3468 28.8438 14.8399 29.0852L15.2458 28.26C14.8052 28.0428 14.3813 27.7935 13.9774 27.5139L13.4223 28.251ZM12.3725 27.299C12.7017 27.6386 13.0523 27.9566 13.4223 28.251L13.9744 27.5154C13.6426 27.2495 13.3276 26.9632 13.0313 26.6581L12.3725 27.299ZM11.4854 26.2134C11.758 26.5922 12.055 26.9532 12.3733 27.2945L13.0403 26.6618C12.7542 26.3552 12.4874 26.0313 12.2412 25.6919L11.4854 26.2134ZM10.752 24.8831C10.9687 25.3383 11.2127 25.78 11.4824 26.2059L12.2479 25.6956C12.0031 25.3068 11.7814 24.9039 11.5839 24.4891L10.752 24.8831ZM10.1208 23.2416C10.2952 23.8019 10.5061 24.3503 10.752 24.8831L11.5839 24.4891C11.3587 24.0007 11.165 23.499 11.0042 22.9857L10.1208 23.2416ZM9.7074 21.5151C9.80141 22.009 9.98123 22.7835 10.1163 23.2446L10.9989 22.9857C10.8736 22.5582 10.7005 21.8143 10.611 21.3443L9.7074 21.5151ZM9.53057 19.0529C9.49863 19.8777 9.55793 20.7034 9.7074 21.5151L10.6102 21.3405C10.4718 20.5858 10.418 19.8181 10.4498 19.0514L9.53057 19.0529ZM9.62757 16.8773C9.55403 17.6001 9.52165 18.3265 9.53057 19.0529H10.4535C10.4454 18.3719 10.4745 17.6909 10.5408 17.0131L9.62757 16.8773ZM9.88946 15.6089C9.80141 15.9618 9.69174 16.5266 9.63055 16.8646L10.5356 17.0295C10.5968 16.693 10.702 16.1535 10.7826 15.8357L9.88946 15.6089ZM10.2528 14.3457C10.1319 14.7001 9.97526 15.2657 9.88946 15.6089L10.7848 15.8327C10.8676 15.5014 11.0176 14.9635 11.1265 14.6434L10.2528 14.3457ZM10.9243 12.7244C10.6707 13.2551 10.4465 13.7993 10.2528 14.3546L11.1295 14.6337C11.3117 14.1187 11.5214 13.6138 11.7577 13.1213L10.9243 12.7244ZM11.9689 10.8695C11.5832 11.4677 11.2343 12.0889 10.9243 12.7296L11.7585 13.1168C12.0495 12.5167 12.3764 11.9347 12.7374 11.3739L11.9689 10.8695ZM13.1701 9.28852C12.8284 9.68545 12.2964 10.3823 11.9719 10.8651L12.7351 11.3784C13.0396 10.9255 13.5499 10.2592 13.867 9.88616L13.1701 9.28852ZM14.4736 7.99326C14.0198 8.40052 13.587 8.83059 13.1768 9.2818L13.861 9.8966C14.2466 9.47205 14.6532 9.06714 15.0794 8.68342L14.4736 7.99326ZM15.7368 6.99123C15.4077 7.22402 14.8414 7.67094 14.4736 7.99326L15.0779 8.6864C15.4286 8.3805 15.9681 7.95372 16.268 7.74182L15.7368 6.99123ZM16.9634 6.21527C16.6149 6.41374 16.068 6.75844 15.7368 6.99123L16.268 7.74182C16.5664 7.52918 17.0887 7.20014 17.4178 7.0151L16.9634 6.21527ZM18.4728 5.48408C17.957 5.70086 17.4532 5.94494 16.9634 6.21527L17.4178 7.0151C17.8734 6.76417 18.3418 6.53729 18.8212 6.33539L18.4728 5.48408ZM20.3261 4.8454C19.6949 5.02415 19.0741 5.23812 18.4668 5.48631L18.8272 6.33241C19.3967 6.10149 19.9786 5.90222 20.5701 5.73552L20.3261 4.8454ZM22.1407 4.45071C21.6781 4.52532 20.8723 4.69469 20.3261 4.8454L20.5701 5.73253C21.0827 5.59152 21.8549 5.42662 22.2817 5.35947L22.1407 4.45071ZM24.2425 4.33058C23.5413 4.32725 22.8406 4.36736 22.1444 4.45071L22.2787 5.36097C22.9307 5.28428 23.5868 5.2474 24.2432 5.25054L24.2425 4.33058ZM26.0637 4.41116C25.7355 4.36938 24.9229 4.33058 24.2425 4.33058V5.24756C24.914 5.24756 25.6773 5.28561 25.9466 5.32217L26.0637 4.41116ZM26.6442 4.48652C26.6606 4.48652 26.6591 4.48652 26.6151 4.48279L26.4786 4.46563C26.3674 4.45071 26.2249 4.43056 26.0779 4.40743L25.9354 5.31918C26.0846 5.34231 26.2339 5.36395 26.3547 5.37962C26.4499 5.39422 26.5458 5.40394 26.642 5.40872L26.6442 4.48652ZM26.2786 5.05581C26.2495 4.98234 26.242 4.9021 26.257 4.82451C26.2741 4.73476 26.3196 4.65288 26.3868 4.59098C26.4566 4.52521 26.5484 4.48795 26.6442 4.48652V5.40872C26.7787 5.41018 26.9089 5.3612 27.0091 5.27143C27.0868 5.19909 27.1392 5.10358 27.1583 4.9991C27.1761 4.90407 27.1663 4.80592 27.1299 4.71632L26.2786 5.05581ZM24.2686 3.91425C24.8655 4.27388 25.4102 4.6059 25.8063 4.85212C26.0048 4.97522 26.1645 5.07595 26.2749 5.14683C26.3306 5.18264 26.3709 5.20926 26.3958 5.22667L26.4137 5.23935H26.4092L26.3973 5.2289C26.3928 5.22443 26.3816 5.21473 26.3682 5.20055C26.3382 5.16881 26.3131 5.13287 26.2936 5.09386L27.1143 4.68275C27.0948 4.64256 27.0697 4.60537 27.0397 4.57232C27.0255 4.55665 27.0121 4.54546 27.0053 4.53875C26.9986 4.53203 26.977 4.51487 26.9688 4.5089C26.9606 4.50293 26.9322 4.48204 26.9151 4.4701C26.8785 4.44548 26.83 4.4134 26.7718 4.37609C26.6547 4.30148 26.4905 4.19703 26.2898 4.07317C25.8892 3.82471 25.3415 3.49045 24.7424 3.12933L24.2686 3.91425ZM21.6758 2.41679C21.8997 2.51752 23.0584 3.18156 24.2641 3.91574L24.7424 3.13083C23.5561 2.40859 22.3406 1.70873 22.0564 1.57965L21.6758 2.41679ZM20.6238 2.04821C20.9715 2.15192 21.4535 2.32278 21.687 2.42127L22.0467 1.57667C21.7743 1.46102 21.2588 1.27822 20.8865 1.16854L20.6238 2.04821ZM19.4949 1.83632C19.8767 1.87373 20.2545 1.94463 20.6238 2.04821L20.8865 1.1663C20.4534 1.04375 20.0101 0.960836 19.5621 0.918595L19.4949 1.83632ZM18.8981 1.79379L19.4949 1.83632L19.5621 0.918595L18.9592 0.876066L18.8981 1.79379ZM24.1955 6.10634C24.8642 6.09905 25.5327 6.13594 26.1966 6.21676L26.3241 5.30725C25.616 5.22009 24.9029 5.1802 24.1895 5.18787L24.1955 6.10634ZM22.7644 6.14887H22.7756H22.8084L22.9151 6.1429C23.0024 6.13842 23.1158 6.13394 23.2487 6.13021C23.5135 6.122 23.8493 6.1138 24.1917 6.11007L24.182 5.18638C23.5038 5.19384 22.8055 5.21622 22.651 5.23562L22.7644 6.14887ZM21.7199 6.32868C22.1951 6.24288 22.6615 6.16155 22.7682 6.14812L22.6525 5.23263C22.5137 5.2498 22.0146 5.33709 21.555 5.42066L21.7199 6.32868ZM20.1336 6.74203C20.6541 6.57429 21.1837 6.43628 21.7199 6.32868L21.5565 5.42364C20.9785 5.53978 20.4078 5.68925 19.8471 5.87131L20.1336 6.74203ZM18.6914 7.31131C19.0495 7.14344 19.7068 6.88155 20.1336 6.74203L19.8471 5.86758C19.3216 6.045 18.8053 6.24896 18.3004 6.47865L18.6914 7.31131ZM17.3924 8.01565C17.7386 7.80226 18.3288 7.48068 18.6877 7.31206L18.2967 6.47939C17.9042 6.66368 17.2835 7.00168 16.9089 7.23222L17.3924 8.01565ZM16.324 8.75206C16.5582 8.56777 17.041 8.24023 17.3984 8.01192L16.9037 7.2367C16.5403 7.46874 16.027 7.81569 15.7554 8.02982L16.324 8.75206ZM15.2533 9.68918C15.5995 9.35791 16.0837 8.93411 16.3172 8.75728L15.7621 8.02385C15.4891 8.23053 14.9765 8.68118 14.6183 9.02365L15.2533 9.68918ZM14.2087 10.7987C14.44 10.5174 14.9093 10.0175 15.2533 9.68918L14.6176 9.02439C14.255 9.37134 13.7588 9.8981 13.4984 10.2182L14.2087 10.7987ZM13.4126 11.8775C13.623 11.5694 13.9826 11.0755 14.2095 10.7972L13.4969 10.2159C13.2485 10.5211 12.8724 11.0367 12.6531 11.359L13.4126 11.8775ZM12.6367 13.2385C12.8703 12.77 13.1306 12.3154 13.4163 11.8768L12.6568 11.3545C12.3465 11.829 12.0642 12.3213 11.8115 12.8288L12.6367 13.2385ZM11.9614 14.8336C12.1548 14.2915 12.379 13.7609 12.6329 13.2444L11.8122 12.8273C11.5387 13.3817 11.2975 13.9514 11.09 14.5337L11.9614 14.8336ZM11.5548 16.3117C11.6346 15.9334 11.8219 15.2597 11.9637 14.8269L11.0892 14.5404C10.94 14.9963 10.743 15.7029 10.655 16.1214L11.5548 16.3117ZM11.331 17.7293C11.3675 17.3436 11.472 16.6945 11.5548 16.3117L10.655 16.1214C10.5677 16.534 10.4573 17.2182 10.417 17.645L11.331 17.7293ZM11.2489 18.5903C11.2489 18.5903 11.2489 18.5903 11.2489 18.5702C11.2489 18.5501 11.2489 18.5329 11.2534 18.5068C11.2571 18.4538 11.2631 18.3852 11.2713 18.3046C11.2862 18.1442 11.3071 17.9412 11.3302 17.7368L10.4162 17.6353C10.3714 18.0352 10.3289 18.4739 10.3289 18.5903H11.2489ZM10.8505 18.2837C10.9071 18.2836 10.9633 18.2948 11.0156 18.3167C11.0679 18.3386 11.1152 18.3708 11.1549 18.4113C11.1899 18.4467 11.2173 18.4888 11.2354 18.5351C11.2429 18.5524 11.2474 18.5716 11.2489 18.5903L10.3304 18.5896C10.3294 18.6822 10.3451 18.7742 10.3767 18.8612C10.4115 18.9598 10.4758 19.0455 10.5607 19.1066C10.6457 19.1676 10.7473 19.2013 10.8519 19.2029L10.8505 18.2837ZM10.94 17.6667C10.8191 17.9002 10.7057 18.1143 10.6199 18.2635C10.5766 18.3382 10.5453 18.3934 10.5222 18.4262C10.5102 18.4441 10.5087 18.4456 10.514 18.4389C10.526 18.4244 10.5393 18.4109 10.5535 18.3986C10.5765 18.3789 10.6015 18.3616 10.6281 18.3471C10.6964 18.3084 10.7735 18.2881 10.8519 18.2882V19.2081C10.9328 19.208 11.0122 19.1869 11.0825 19.1469C11.1118 19.1304 11.1393 19.1109 11.1646 19.0887C11.1877 19.0681 11.2092 19.0457 11.2287 19.0216C11.2516 18.9931 11.273 18.9635 11.2929 18.9328C11.3295 18.8769 11.3735 18.8037 11.4197 18.7224C11.5145 18.5575 11.6346 18.3344 11.7592 18.0934L10.94 17.6667ZM11.8779 16.1297C11.5325 16.62 11.2197 17.1324 10.9415 17.6637L11.7562 18.0912C12.0129 17.6042 12.3005 17.1342 12.6173 16.684L11.8779 16.1297ZM12.9344 14.8381C12.6158 15.2037 12.1405 15.7797 11.8779 16.1297L12.6135 16.6818C12.8575 16.3565 13.3171 15.7984 13.6267 15.4432L12.9344 14.8381ZM15.2757 12.4722C14.3199 13.3974 13.2612 14.4606 12.9344 14.8381L13.6275 15.4425C13.9259 15.0993 14.9548 14.0629 15.9158 13.1295L15.2757 12.4722ZM17.2715 10.4301C17.2111 10.5121 16.9656 10.7785 16.5836 11.1695C16.215 11.5463 15.748 12.0118 15.2749 12.4737L15.9173 13.1318C16.3941 12.6662 16.8664 12.1961 17.2417 11.8126C17.6035 11.4396 17.9057 11.1225 18.0139 10.9747L17.2715 10.4301ZM17.9893 9.77051C17.8459 9.84379 17.7161 9.94122 17.6058 10.0585C17.4917 10.1726 17.3836 10.2931 17.2835 10.4196L18.005 10.9912C18.0821 10.8935 18.1648 10.8003 18.2527 10.7121C18.284 10.6806 18.3169 10.6508 18.3512 10.6226C18.3817 10.598 18.381 10.6024 18.3571 10.6136L17.9893 9.77051ZM18.6108 9.62129C18.4998 9.62315 18.3894 9.63767 18.2818 9.66456C18.1692 9.69041 18.0602 9.73 17.9572 9.78245L18.39 10.5942C18.4242 10.5789 18.46 10.5671 18.4966 10.5592C18.5338 10.5495 18.5718 10.5435 18.6101 10.5412L18.6108 9.62129ZM19.2577 9.78394C19.0539 9.68752 18.8324 9.63442 18.6071 9.628V10.548C18.6461 10.5502 18.6848 10.5562 18.7227 10.5659C18.765 10.5751 18.8063 10.5886 18.8458 10.6062L19.2577 9.78394ZM19.9337 10.4234C19.8342 10.2977 19.7278 10.1776 19.6151 10.0637C19.5084 9.94947 19.3839 9.85322 19.2465 9.77872L18.8578 10.6121C18.8339 10.6009 18.8339 10.5965 18.8652 10.6218C18.8966 10.6472 18.9242 10.6733 18.9645 10.7136C19.0524 10.8025 19.1353 10.8961 19.2129 10.9941L19.9337 10.4234ZM21.4662 12.0208C21.1237 11.6865 20.7768 11.3374 20.4962 11.0441C20.2157 10.7509 20.0083 10.5218 19.9456 10.4375L19.204 10.9815C19.4017 11.2254 19.6119 11.459 19.8337 11.6813C20.1232 11.9798 20.4768 12.3386 20.8245 12.6781L21.4662 12.0208ZM23.5217 14.0614C23.0867 13.6138 22.1541 12.6938 21.4662 12.0208L20.823 12.6781C21.5147 13.3541 22.4369 14.2614 22.8599 14.7001L23.5217 14.0614ZM24.8095 15.4671C24.5379 15.1396 23.9612 14.5091 23.5187 14.0584L22.8629 14.7031C23.2942 15.1418 23.8515 15.7529 24.1015 16.0543L24.8095 15.4671ZM25.7049 16.7019C25.481 16.3483 25.0781 15.7976 24.8162 15.4723L24.1 16.0491C24.344 16.3527 24.7252 16.875 24.9289 17.1959L25.7049 16.7019ZM26.3614 17.8114C26.2227 17.5413 25.9302 17.0444 25.7004 16.6922L24.9326 17.1981C25.1475 17.5241 25.4228 17.9927 25.5437 18.2285L26.3614 17.8114ZM26.8173 18.947C26.6871 18.5647 26.5377 18.1891 26.3697 17.8218L25.5422 18.2233C25.6541 18.4538 25.8407 18.9179 25.9496 19.2439L26.8173 18.947ZM27.1561 20.2736C27.069 19.8252 26.9559 19.3822 26.8173 18.947L25.9466 19.2454C26.0711 19.6402 26.173 20.0418 26.2518 20.4482L27.1561 20.2736ZM27.3232 22.0202C27.2926 21.448 27.2225 20.6683 27.1561 20.2818L26.2495 20.4362C26.3062 20.7705 26.3741 21.5084 26.4047 22.0702L27.3232 22.0202ZM27.2754 23.9721C27.333 23.3256 27.3492 22.6762 27.3239 22.0277L26.4047 22.062C26.4285 22.6662 26.414 23.2712 26.3614 23.8736L27.2754 23.9721ZM27.0382 25.5135C27.1195 25.133 27.221 24.4503 27.2754 23.9758L26.3614 23.8713C26.3085 24.3317 26.2122 24.9823 26.1376 25.3225L27.0382 25.5135ZM26.6442 26.9379C26.7793 26.5245 26.9516 25.8933 27.0382 25.5203L26.1428 25.3106C26.0608 25.6605 25.8959 26.2679 25.7698 26.6536L26.6442 26.9379ZM25.8839 28.7233C26.171 28.1431 26.4248 27.547 26.6442 26.9379L25.7698 26.6521C25.5638 27.2195 25.3264 27.7749 25.0587 28.316L25.8839 28.7233ZM24.8244 30.5073C25.2148 29.9375 25.5679 29.3431 25.8817 28.7278L25.061 28.3122C24.7683 28.8838 24.4391 29.4362 24.0768 29.9664L24.8244 30.5073ZM23.5837 31.9995C24.0263 31.5243 24.4415 31.0244 24.8274 30.5021L24.0813 29.9686C23.7186 30.4572 23.3288 30.925 22.9136 31.3698L23.5837 31.9995ZM22.3153 33.2045C22.7589 32.8254 23.1823 32.4231 23.5837 31.9995L22.9122 31.3683C22.5373 31.7635 22.1423 32.139 21.7288 32.4935L22.3153 33.2045ZM21.1677 34.0499C21.4916 33.826 21.9989 33.453 22.3063 33.2097L21.734 32.4897C21.4438 32.721 20.9543 33.0821 20.6492 33.2903L21.1677 34.0499ZM19.7345 34.8706C20.227 34.6238 20.7055 34.3498 21.1677 34.0499L20.6455 33.2903C20.2176 33.5668 19.775 33.8199 19.3196 34.0484L19.7345 34.8706ZM17.9893 35.5936C18.5852 35.3875 19.1685 35.1463 19.7359 34.8713L19.3248 34.0506C18.7964 34.3058 18.2535 34.53 17.699 34.7221L17.9893 35.5936ZM16.2508 36.0674C16.7149 35.9711 17.4916 35.7592 17.9893 35.5936L17.6983 34.7206C17.2305 34.8766 16.4888 35.0787 16.0643 35.1683L16.2508 36.0674ZM13.7812 36.2531C14.6102 36.2948 15.4412 36.2321 16.2546 36.0666L16.0606 35.1675C15.3109 35.3194 14.545 35.3753 13.7812 35.3339V36.2531ZM11.7891 36.189C11.8939 36.2077 11.9998 36.2194 12.1062 36.224C12.2315 36.2322 12.3875 36.2382 12.562 36.2434C12.9112 36.2531 13.3462 36.2569 13.7842 36.2531L13.776 35.3332C13.3477 35.3332 12.9239 35.3332 12.5874 35.3235C12.4188 35.319 12.2748 35.3123 12.1636 35.3056C12.1079 35.3021 12.0631 35.2986 12.0293 35.2951L11.9838 35.2899L11.7891 36.189ZM12.0174 35.7413C12.0175 35.8151 11.9994 35.8877 11.9646 35.9528C11.9298 36.0179 11.8795 36.0734 11.8182 36.1144C11.7782 36.1413 11.7337 36.1607 11.6868 36.1718C11.6525 36.18 11.6354 36.1778 11.6533 36.1778C11.7063 36.1794 11.7592 36.1848 11.8115 36.1942L11.9607 35.2869C11.8584 35.2691 11.7549 35.2593 11.651 35.2578C11.5926 35.2572 11.5343 35.2632 11.4772 35.2757C11.4167 35.2902 11.3593 35.3155 11.3078 35.3503C11.2427 35.3932 11.1891 35.4516 11.152 35.5202C11.1149 35.5888 11.0954 35.6655 11.0952 35.7435L12.0174 35.7413ZM13.4596 36.4218C13.0008 36.1427 12.5867 35.886 12.2897 35.6958C12.1405 35.6003 12.0248 35.5234 11.9487 35.472C11.9092 35.4443 11.889 35.4287 11.8808 35.422C11.8726 35.4152 11.8861 35.422 11.9017 35.4429C11.9212 35.4639 11.9384 35.4869 11.9532 35.5115C12.011 35.6083 12.0307 35.7233 12.0084 35.8338L11.1064 35.6533C11.0838 35.7673 11.1045 35.8857 11.1646 35.9853C11.1825 36.0152 11.2035 36.0432 11.2272 36.0688C11.2489 36.0918 11.2721 36.1132 11.2966 36.133C11.3324 36.1621 11.3757 36.1942 11.4205 36.2255C11.5123 36.2897 11.6406 36.3748 11.7935 36.4725C12.1002 36.6687 12.521 36.9299 12.9821 37.2104L13.4596 36.4218ZM15.5204 37.5969C15.3092 37.5044 14.3863 36.9858 13.4596 36.4218L12.9814 37.2074C13.8939 37.7625 14.8728 38.3169 15.1518 38.4393L15.5204 37.5969ZM16.5739 37.9699C16.2206 37.8719 15.8742 37.7508 15.5368 37.6073L15.1361 38.4355C15.5211 38.6026 15.9173 38.7427 16.3217 38.8548L16.5739 37.9699ZM17.8781 38.2065C17.4385 38.1646 17.0032 38.0857 16.5769 37.9707L16.3195 38.8541C16.8081 38.9871 17.3074 39.0775 17.8117 39.1242L17.8781 38.2065ZM19.3039 38.2065C18.8291 38.2354 18.3529 38.2354 17.8781 38.2065L17.8072 39.1234C18.329 39.1559 18.8523 39.1559 19.3741 39.1234L19.3039 38.2065ZM20.6641 37.9707C20.2193 38.0902 19.7645 38.1688 19.3054 38.2057L19.3696 39.1234C19.895 39.0817 20.4153 38.991 20.9238 38.8526L20.6641 37.9707ZM21.9258 37.4738C21.5199 37.6719 21.099 37.8378 20.6671 37.9699L20.92 38.8541C21.4092 38.7055 21.8855 38.5177 22.3444 38.2923L21.9258 37.4738ZM27.1486 34.3849C24.6036 35.9189 22.2698 37.3052 21.9333 37.47L22.3376 38.296C22.7219 38.108 25.1095 36.6889 27.6239 35.172L27.1486 34.3849ZM32.1513 31.3377C31.9327 31.4869 29.6891 32.8471 27.1471 34.3856L27.6239 35.172C30.1435 33.6447 32.4207 32.2622 32.6616 32.1032L32.1513 31.3377ZM33.2033 30.426C32.8738 30.7534 32.5223 31.058 32.1513 31.3377L32.6616 32.1032C33.0809 31.7923 33.4772 31.4514 33.8472 31.0833L33.2033 30.426ZM34.2061 29.2322C33.9003 29.6583 33.5626 30.0607 33.1959 30.4357L33.8532 31.0796C34.2608 30.6618 34.635 30.2128 34.9724 29.7366L34.2061 29.2322ZM34.8261 28.0787C34.6479 28.4778 34.4407 28.8634 34.2061 29.2322L34.9746 29.7381C35.2397 29.3232 35.4731 28.889 35.673 28.4391L34.8261 28.0787ZM35.2648 26.7991C35.1437 27.2338 34.9972 27.6611 34.8261 28.0787L35.673 28.4391C35.8611 27.9812 36.0218 27.5126 36.1542 27.0356L35.2648 26.7991ZM35.4491 26.1089L35.2648 26.7991L36.1542 27.0356L36.3378 26.3462L35.4491 26.1089ZM35.4335 13.81V26.2201H36.3534V13.8018L35.4335 13.81ZM34.8269 11.9477C35.0778 12.5898 35.286 13.2478 35.4499 13.9174L36.3385 13.6809C36.164 12.9692 35.9419 12.27 35.6737 11.588L34.8269 11.9477ZM34.2069 10.7942C34.4415 11.163 34.6487 11.5485 34.8269 11.9477L35.6737 11.588C35.4739 11.1381 35.2404 10.7031 34.9753 10.2883L34.2069 10.7942ZM33.2996 9.68918C33.6279 10.0364 33.9308 10.4066 34.2061 10.7972L34.9746 10.2913C34.669 9.85464 34.3316 9.44116 33.9651 9.05424L33.2996 9.68918ZM32.1528 8.71326C32.5641 9.00283 32.948 9.3295 33.2996 9.68918L33.9651 9.05424C33.5657 8.64442 33.1285 8.2732 32.6594 7.94551L32.1528 8.71326ZM30.8307 7.87388C31.1985 8.09175 31.7962 8.47078 32.1476 8.70879L32.6654 7.9485C32.2968 7.69705 31.6827 7.30907 31.2992 7.08226L30.8307 7.87388ZM29.425 7.14866C29.905 7.36298 30.3725 7.6041 30.8255 7.8709L31.306 7.08673C30.8171 6.79793 30.3122 6.53735 29.7936 6.30629L29.425 7.14866ZM27.8343 6.57564C28.3744 6.73644 28.9055 6.92648 29.425 7.14493L29.7928 6.30182C29.236 6.06686 28.6666 5.86286 28.0872 5.69075L27.8343 6.57564ZM26.1928 6.21229C26.7459 6.30496 27.2938 6.42624 27.8343 6.57564L28.0872 5.6915C27.5079 5.53261 26.9207 5.40435 26.3279 5.30725L26.1928 6.21229ZM18.7503 11.3605C18.6677 11.3883 18.5788 11.3914 18.4944 11.3694C18.4612 11.3609 18.4291 11.3484 18.3989 11.3321C18.381 11.3225 18.364 11.3113 18.3482 11.2986C18.3429 11.2941 18.3482 11.2986 18.3676 11.3187C18.4026 11.356 18.4534 11.4157 18.5078 11.4866L19.2398 10.9292C19.1763 10.8453 19.1085 10.7646 19.0368 10.6875C19.0039 10.652 18.9687 10.6186 18.9316 10.5875C18.9009 10.5653 18.8682 10.5461 18.8339 10.5301C18.799 10.511 18.7619 10.4962 18.7235 10.486C18.6355 10.4628 18.5427 10.4657 18.4564 10.4942L18.7503 11.3605ZM18.578 11.6425C18.6653 11.5299 18.7488 11.4291 18.8108 11.3597C18.8428 11.3239 18.863 11.303 18.8734 11.2933C18.8839 11.2836 18.8734 11.2933 18.8585 11.3045C18.8415 11.3169 18.8236 11.3279 18.8048 11.3374C18.7834 11.3481 18.7612 11.3571 18.7384 11.3642C18.6954 11.3776 18.6506 11.3844 18.6056 11.3844V10.4681C18.5312 10.4683 18.4578 10.486 18.3914 10.5196C18.3654 10.533 18.3404 10.5484 18.3168 10.5659C18.2906 10.5854 18.2657 10.6066 18.2422 10.6293C18.2049 10.6651 18.1639 10.7084 18.1251 10.7524C18.0452 10.8419 17.9482 10.9598 17.852 11.0844L18.578 11.6425ZM16.556 13.7078C17.4431 12.8505 18.3601 11.9171 18.5765 11.644L17.8513 11.0777C17.6841 11.2918 16.8231 12.1708 15.9166 13.046L16.556 13.7078ZM14.2587 16.0245C14.6213 15.6171 15.6532 14.5777 16.55 13.7115L15.9114 13.0497C15.016 13.9159 13.961 14.9769 13.5723 15.4126L14.2587 16.0245ZM13.1395 17.4368C13.388 17.078 13.8976 16.4333 14.2624 16.0245L13.576 15.4126C13.1895 15.8461 12.6568 16.5199 12.3822 16.9131L13.1395 17.4368ZM12.3778 18.7567C12.6069 18.3012 12.8612 17.8589 13.1395 17.4316L12.3763 16.9176C12.0731 17.3795 11.7963 17.8583 11.5473 18.3516L12.3778 18.7567ZM11.9375 20.0005C12.05 19.5719 12.1985 19.1536 12.3815 18.75L11.5488 18.359C11.3386 18.8207 11.1691 19.2998 11.0422 19.7908L11.9375 20.0005ZM11.7883 21.3517C11.7836 20.8997 11.8337 20.4487 11.9375 20.0087L11.0422 19.7893C10.9207 20.3026 10.8621 20.8288 10.8676 21.3562L11.7883 21.3517ZM11.8629 22.5455C11.8148 22.1494 11.7899 21.7508 11.7883 21.3517H10.8669C10.8672 21.7974 10.8946 22.2434 10.9489 22.6858L11.8629 22.5455ZM12.0868 23.4274C11.9931 23.1336 11.9167 22.8347 11.8577 22.5321L10.9527 22.6962C11.0193 23.0416 11.1065 23.3827 11.2138 23.7176L12.0868 23.4274ZM12.4889 24.3974C12.3331 24.0876 12.1999 23.7669 12.0905 23.4379L11.2108 23.7065C11.3362 24.0874 11.4898 24.4585 11.6704 24.8167L12.4889 24.3974ZM13.047 25.3404C12.8425 25.0409 12.6574 24.7287 12.4927 24.4056L11.666 24.8085C11.8516 25.1744 12.061 25.5278 12.2927 25.8665L13.047 25.3404ZM13.8797 26.2783C13.5791 25.9825 13.299 25.6666 13.041 25.333L12.2949 25.8739C12.5832 26.2495 12.8973 26.6045 13.235 26.9364L13.8797 26.2783ZM14.9078 27.108C14.5424 26.8576 14.1971 26.5789 13.8752 26.2746L13.241 26.9409C13.6066 27.2869 13.9996 27.6028 14.4161 27.8854L14.9078 27.108ZM15.9136 27.6482C15.5678 27.4945 15.2339 27.3154 14.9145 27.1125L14.4087 27.881C14.7751 28.1147 15.1587 28.3202 15.5562 28.4958L15.9136 27.6482ZM16.853 27.981C16.5342 27.8867 16.2206 27.7756 15.9136 27.6482L15.5562 28.4958C15.9006 28.6391 16.2533 28.7637 16.6112 28.8688L16.853 27.981ZM17.9192 28.1578C17.5638 28.1291 17.2115 28.0712 16.8656 27.9847L16.5985 28.8651C17.007 28.9708 17.4239 29.0409 17.8445 29.0748L17.9192 28.1578ZM19.2554 28.1578C18.8137 28.1931 18.3698 28.1931 17.9281 28.1578L17.8348 29.0725C18.3369 29.1138 18.8415 29.1138 19.3435 29.0725L19.2554 28.1578ZM20.5477 27.9145C20.124 28.0294 19.6919 28.1108 19.2554 28.1578L19.3435 29.0725C19.8391 29.0198 20.3297 28.9277 20.8103 28.7957L20.5477 27.9145ZM21.7311 27.4266C21.3499 27.6198 20.9543 27.783 20.5477 27.9145L20.8103 28.7957C21.2721 28.6472 21.7213 28.4625 22.1534 28.2421L21.7311 27.4266ZM22.7391 26.8006C22.4175 27.0317 22.0808 27.2408 21.7311 27.4266L22.1571 28.2413C22.5523 28.032 22.9325 27.7954 23.2949 27.5333L22.7391 26.8006ZM23.6023 26.0082C23.3286 26.2913 23.0381 26.5577 22.7323 26.8058L23.3016 27.5281C23.6429 27.2521 23.9669 26.9553 24.2716 26.6394L23.6023 26.0082ZM24.3074 25.1263C24.0918 25.4382 23.8547 25.7346 23.5978 26.0134L24.2761 26.635C24.5696 26.317 24.8396 25.9781 25.0841 25.621L24.3074 25.1263ZM24.8297 24.184C24.6773 24.506 24.5046 24.818 24.3126 25.1181L25.0781 25.6284C25.2964 25.2887 25.4923 24.935 25.6646 24.5697L24.8297 24.184ZM25.2356 23.0969C25.122 23.467 24.9864 23.83 24.8297 24.184L25.6646 24.5697C25.84 24.1751 25.9913 23.7702 26.1175 23.3573L25.2356 23.0969ZM25.393 21.3875C25.4357 21.9645 25.3817 22.5445 25.2333 23.1036L26.1205 23.3476C26.2909 22.7086 26.3559 22.046 26.313 21.386L25.393 21.3875ZM25.1692 19.5842C25.2606 19.8109 25.3267 20.0472 25.3661 20.2885C25.3972 20.6542 25.4074 21.0214 25.3967 21.3883H26.3167C26.328 20.982 26.3153 20.5754 26.2786 20.1706C26.2315 19.8665 26.1509 19.5685 26.0384 19.282L25.1692 19.5842ZM24.6208 18.3158C24.8289 18.7271 25.0125 19.1507 25.1692 19.5842L26.0376 19.2857C25.8659 18.8084 25.6649 18.3422 25.4355 17.8897L24.6208 18.3158ZM23.7292 16.9556C24.0518 17.3939 24.3507 17.8492 24.6245 18.3195L25.4355 17.886C25.1426 17.378 24.8218 16.8865 24.4745 16.4139L23.7292 16.9556ZM20.9685 14.0137C21.946 14.9413 22.8678 15.9259 23.7292 16.9623L24.4626 16.4072C23.5751 15.3359 22.6241 14.3188 21.6147 13.3616L20.9685 14.0137ZM18.5063 11.4903C18.5556 11.5552 18.6675 11.6761 18.7988 11.8134C18.9301 11.9507 19.1264 12.1551 19.3465 12.3797C19.7874 12.8273 20.3634 13.4101 20.97 14.0129L21.6184 13.3608C21.014 12.7639 20.441 12.1834 20.0038 11.7365C19.7852 11.5127 19.6016 11.3232 19.4658 11.1799C19.398 11.1053 19.3427 11.0494 19.3017 11.0046L19.2532 10.9509L19.2375 10.933L18.5063 11.4903Z" fill="#222222"/>
<path d="M49.9775 22.4307C50.0073 22.1875 49.9855 21.9408 49.9134 21.7067C49.8413 21.4726 49.7206 21.2563 49.5592 21.0721C49.3978 20.8878 49.1993 20.7398 48.9766 20.6375C48.754 20.5353 48.5123 20.4812 48.2674 20.4788C48.0225 20.4813 47.7809 20.5355 47.5585 20.6377C47.336 20.74 47.1376 20.8881 46.9763 21.0724C46.815 21.2567 46.6944 21.4729 46.6225 21.707C46.5505 21.941 46.5288 22.1876 46.5588 22.4307C46.5291 22.6736 46.5509 22.9201 46.623 23.1541C46.695 23.388 46.8156 23.6041 46.9769 23.7882C47.1381 23.9724 47.3364 24.1204 47.5588 24.2227C47.7812 24.325 48.0226 24.3792 48.2674 24.3818C48.5123 24.3794 48.7539 24.3253 48.9764 24.2231C49.199 24.121 49.3975 23.9729 49.5589 23.7888C49.7203 23.6046 49.841 23.3884 49.9132 23.1544C49.9853 22.9204 50.0072 22.6738 49.9775 22.4307ZM49.4097 22.4307C49.4097 23.3559 48.9202 23.8587 48.2674 23.8587C47.6145 23.8587 47.1243 23.3559 47.1243 22.4307C47.1243 21.5055 47.6123 21.0019 48.2674 21.0019C48.9225 21.0019 49.4097 21.5048 49.4097 22.4307ZM50.6445 25.398H51.1996V23.8864H51.2332C51.3059 24.0409 51.4225 24.1707 51.5684 24.2595C51.7144 24.3482 51.8832 24.3921 52.0539 24.3855C52.7441 24.3855 53.2477 23.8326 53.2477 22.9112C53.2477 21.9897 52.7396 21.4443 52.0539 21.4443C51.8829 21.4358 51.7132 21.4789 51.5669 21.5679C51.4206 21.6569 51.3044 21.7877 51.2332 21.9435H51.1847V21.4809H50.6445V25.398ZM51.1847 22.9052C51.1847 22.3083 51.4444 21.9151 51.9308 21.9151C52.4337 21.9151 52.6859 22.3397 52.6859 22.9052C52.6859 23.4708 52.427 23.9125 51.9308 23.9125C51.4555 23.9125 51.1847 23.5043 51.1847 22.9052ZM55.0929 24.387C55.3488 24.4129 55.6059 24.3507 55.8218 24.2107C56.0376 24.0707 56.1992 23.8613 56.2799 23.617L55.7576 23.5222C55.7067 23.6517 55.6152 23.7612 55.4968 23.8343C55.3785 23.9075 55.2396 23.9404 55.1011 23.9281C54.9896 23.9324 54.8785 23.9127 54.7752 23.8705C54.672 23.8283 54.5789 23.7645 54.5023 23.6834C54.4257 23.6023 54.3674 23.5057 54.3311 23.4002C54.2949 23.2947 54.2817 23.1826 54.2923 23.0716H56.318V22.8754C56.3449 22.6956 56.3322 22.5122 56.2808 22.3379C56.2294 22.1636 56.1405 22.0027 56.0204 21.8663C55.9003 21.7299 55.7519 21.6214 55.5855 21.5484C55.4191 21.4754 55.2387 21.4396 55.057 21.4436C54.8702 21.4445 54.6856 21.4847 54.5153 21.5617C54.345 21.6386 54.1928 21.7505 54.0686 21.8902C53.9444 22.0298 53.851 22.194 53.7944 22.3721C53.7378 22.5502 53.7193 22.7382 53.7401 22.9239C53.719 23.112 53.7387 23.3025 53.7978 23.4823C53.8569 23.6621 53.9542 23.8271 54.0828 23.966C54.2115 24.1049 54.3686 24.2143 54.5434 24.287C54.7182 24.3596 54.9066 24.3938 55.0958 24.387H55.0929ZM54.2945 22.6568C54.2971 22.4547 54.3795 22.2619 54.5238 22.1204C54.668 21.9789 54.8624 21.9003 55.0645 21.9017C55.1623 21.9 55.2593 21.9187 55.3495 21.9565C55.4396 21.9944 55.5209 22.0507 55.5881 22.1217C55.6552 22.1928 55.7069 22.2771 55.7397 22.3692C55.7725 22.4613 55.7857 22.5592 55.7785 22.6568H54.2945ZM57.4901 22.6381C57.4802 22.5462 57.4902 22.4532 57.5194 22.3654C57.5486 22.2777 57.5962 22.1973 57.6592 22.1296C57.7222 22.0618 57.799 22.0085 57.8844 21.973C57.9697 21.9376 58.0618 21.9209 58.1542 21.9241C58.2394 21.9203 58.3245 21.9352 58.4034 21.9678C58.4822 22.0005 58.553 22.0501 58.6106 22.113C58.6683 22.176 58.7114 22.2508 58.7369 22.3323C58.7625 22.4137 58.7698 22.4998 58.7585 22.5844V24.3295H59.3174V22.5172C59.3374 22.3805 59.327 22.241 59.2868 22.1087C59.2467 21.9764 59.1778 21.8546 59.0851 21.7521C58.9925 21.6495 58.8783 21.5687 58.7508 21.5153C58.6232 21.462 58.4855 21.4375 58.3474 21.4436C58.1728 21.4301 57.9984 21.471 57.8479 21.5606C57.6975 21.6503 57.5785 21.7843 57.5073 21.9442H57.4722V21.4809H56.9402V24.3295H57.4946L57.4901 22.6381ZM61.7333 22.4844H60.05V22.9642H61.734L61.7333 22.4844ZM64.6081 22.1763C64.5478 21.9443 64.4053 21.7421 64.2071 21.6073C64.009 21.4725 63.7686 21.4143 63.5307 21.4436C62.8868 21.4436 62.4309 21.7831 62.4309 22.2874C62.4309 22.6918 62.6756 22.9589 63.2098 23.0791L63.6918 23.185C63.9664 23.2462 64.094 23.3685 64.094 23.5469C64.094 23.7707 63.8582 23.9401 63.4971 23.9401C63.3608 23.9579 63.2228 23.9246 63.1097 23.8464C62.9967 23.7682 62.9167 23.6508 62.8853 23.517L62.3496 23.5984C62.4421 24.1027 62.8614 24.3862 63.5016 24.3862C64.1895 24.3862 64.6663 24.0207 64.6663 23.5051C64.6663 23.1029 64.4103 22.8537 63.8873 22.7336L63.4344 22.6299C63.1211 22.5553 62.9868 22.4501 62.9868 22.2568C62.9868 22.0382 63.2225 21.8838 63.5374 21.8838C63.6615 21.8736 63.7854 21.9058 63.8889 21.9752C63.9923 22.0446 64.0691 22.1471 64.1067 22.2658L64.6081 22.1763ZM66.4734 24.387C66.6605 24.3889 66.846 24.351 67.0174 24.2759C67.1889 24.2008 67.3425 24.0902 67.468 23.9513C67.5935 23.8125 67.6882 23.6485 67.7457 23.4704C67.8031 23.2923 67.8221 23.1039 67.8014 22.9179C67.8212 22.7317 67.8016 22.5434 67.7439 22.3652C67.6861 22.187 67.5916 22.023 67.4663 21.8838C67.3411 21.7445 67.188 21.6332 67.0169 21.557C66.8458 21.4808 66.6606 21.4414 66.4734 21.4414C66.2861 21.4414 66.1009 21.4808 65.9298 21.557C65.7588 21.6332 65.6056 21.7445 65.4804 21.8838C65.3551 22.023 65.2606 22.187 65.2029 22.3652C65.1451 22.5434 65.1255 22.7317 65.1453 22.9179C65.1246 23.1039 65.1436 23.2921 65.201 23.4702C65.2584 23.6483 65.353 23.8122 65.4785 23.951C65.6039 24.0899 65.7574 24.2005 65.9288 24.2757C66.1001 24.3508 66.2862 24.3888 66.4734 24.387ZM66.4734 23.9214C65.9511 23.9214 65.7034 23.4633 65.7034 22.9164C65.7034 22.3695 65.9481 21.9077 66.4734 21.9077C66.9986 21.9077 67.2396 22.371 67.2396 22.9164C67.2396 23.4618 66.9956 23.9214 66.4748 23.9214H66.4734ZM70.2218 23.1477C70.2277 23.2394 70.2146 23.3313 70.1835 23.4178C70.1523 23.5042 70.1038 23.5833 70.0409 23.6503C69.9779 23.7172 69.9019 23.7705 69.8175 23.8069C69.7332 23.8432 69.6422 23.8619 69.5503 23.8617C69.469 23.8628 69.3883 23.8466 69.3136 23.8143C69.2389 23.7819 69.1719 23.7341 69.1171 23.6739C69.0623 23.6138 69.0208 23.5427 68.9954 23.4654C68.97 23.3881 68.9613 23.3062 68.9699 23.2253V21.4809H68.42V23.2924C68.42 23.999 68.808 24.3661 69.3549 24.3661C69.5338 24.3745 69.7111 24.3283 69.8632 24.2335C70.0153 24.1388 70.1349 24 70.2062 23.8356H70.236V24.3295H70.7814V21.4809H70.2248L70.2218 23.1477ZM71.5231 24.3295H72.0759V22.5896C72.0754 22.5027 72.0927 22.4166 72.1266 22.3366C72.1606 22.2567 72.2105 22.1845 72.2734 22.1245C72.3363 22.0645 72.4108 22.0181 72.4923 21.988C72.5739 21.9579 72.6607 21.9448 72.7474 21.9494C72.8367 21.9474 72.9252 21.9666 73.0056 22.0054L73.1839 21.5421C73.0728 21.4708 72.9428 21.4347 72.8109 21.4383C72.6532 21.4328 72.498 21.4779 72.3678 21.5671C72.2377 21.6563 72.1396 21.7848 72.0879 21.9338H72.058V21.4809H71.5223L71.5231 24.3295ZM74.7 24.387C74.9816 24.4111 75.2615 24.3245 75.4801 24.1454C75.6987 23.9663 75.8389 23.709 75.8707 23.4282H75.3312C75.3028 23.5714 75.2239 23.6996 75.1088 23.7894C74.9938 23.8793 74.8503 23.9248 74.7045 23.9177C74.2352 23.9177 73.933 23.526 73.933 22.9052C73.933 22.2844 74.2412 21.9114 74.7045 21.9114C74.8502 21.9048 74.9934 21.9505 75.1084 22.0402C75.2233 22.13 75.3024 22.2579 75.3312 22.4008H75.8707C75.8374 22.1198 75.6961 21.8627 75.4766 21.684C75.2572 21.5054 74.9768 21.4191 74.6948 21.4436C74.5079 21.4434 74.3231 21.4826 74.1524 21.5587C73.9817 21.6348 73.829 21.7461 73.7042 21.8852C73.5795 22.0244 73.4854 22.1883 73.4283 22.3662C73.3712 22.5441 73.3522 22.7321 73.3727 22.9179C73.3517 23.1039 73.3706 23.2923 73.4279 23.4705C73.4853 23.6487 73.5798 23.8126 73.7053 23.9515C73.8308 24.0905 73.9844 24.2011 74.1559 24.2762C74.3274 24.3512 74.5128 24.389 74.7 24.387ZM77.6934 24.387C77.9494 24.4129 78.2065 24.3507 78.4224 24.2107C78.6382 24.0707 78.7998 23.8613 78.8805 23.617L78.3582 23.5222C78.3072 23.6517 78.2157 23.7612 78.0974 23.8343C77.9791 23.9075 77.8402 23.9404 77.7016 23.9281C77.5902 23.9324 77.4791 23.9127 77.3758 23.8705C77.2726 23.8283 77.1795 23.7645 77.1029 23.6834C77.0263 23.6023 76.968 23.5057 76.9317 23.4002C76.8955 23.2947 76.8823 23.1826 76.8929 23.0716H78.9178V22.8754C78.9447 22.6956 78.932 22.5122 78.8806 22.3379C78.8292 22.1636 78.7404 22.0027 78.6203 21.8663C78.5002 21.7299 78.3517 21.6214 78.1853 21.5484C78.0189 21.4754 77.8386 21.4396 77.6569 21.4436C77.47 21.4445 77.2854 21.4847 77.1151 21.5617C76.9448 21.6386 76.7927 21.7505 76.6684 21.8902C76.5442 22.0298 76.4508 22.194 76.3942 22.3721C76.3376 22.5502 76.3192 22.7382 76.34 22.9239C76.3189 23.1118 76.3385 23.3021 76.3975 23.4817C76.4565 23.6614 76.5535 23.8263 76.6819 23.9651C76.8104 24.1039 76.9672 24.2135 77.1417 24.2863C77.3163 24.3591 77.5044 24.3934 77.6934 24.387ZM76.8921 22.6568C76.8947 22.4554 76.9766 22.2631 77.12 22.1217C77.2635 21.9803 77.457 21.9013 77.6584 21.9017C77.7561 21.9 77.8532 21.9187 77.9433 21.9565C78.0335 21.9944 78.1147 22.0507 78.1819 22.1217C78.2491 22.1928 78.3007 22.2771 78.3335 22.3692C78.3663 22.4613 78.3796 22.5592 78.3724 22.6568H76.8921ZM81.2823 24.3295L81.6307 23.3245H83.1185L83.4617 24.3295H84.0697L82.7029 20.5311H82.0411L80.6742 24.3295H81.2823ZM81.7978 22.8418L82.3582 21.2205H82.388L82.9483 22.8418H81.7978ZM85.127 20.5288H84.5726V24.3295H85.127V20.5288ZM86.4275 20.5288H85.8731V24.3295H86.4275V20.5288ZM87.1736 24.3273H87.728V21.4809H87.1736V24.3273ZM87.4534 21.0392C87.5435 21.0414 87.6308 21.008 87.6964 20.9463C87.7621 20.8846 87.8007 20.7994 87.8041 20.7094C87.7982 20.6203 87.7588 20.5368 87.6936 20.4758C87.6285 20.4148 87.5426 20.3809 87.4534 20.3809C87.3641 20.3809 87.2782 20.4148 87.2131 20.4758C87.148 20.5368 87.1085 20.6203 87.1027 20.7094C87.1052 20.7999 87.1436 20.8857 87.2093 20.948C87.2751 21.0102 87.3629 21.0438 87.4534 21.0414V21.0392ZM89.3023 24.3907C89.4712 24.4032 89.6402 24.3672 89.7894 24.287C89.9386 24.2068 90.0619 24.0857 90.1446 23.9378H90.167V24.3295H90.7087V22.4374C90.7136 22.2958 90.6874 22.1548 90.6319 22.0243C90.5765 21.8939 90.4931 21.7772 90.3877 21.6825C90.2823 21.5878 90.1574 21.5173 90.0218 21.476C89.8862 21.4347 89.7433 21.4236 89.6029 21.4436C89.3547 21.4209 89.1058 21.4796 88.8937 21.6106C88.6816 21.7417 88.5179 21.9381 88.4271 22.1703L88.9493 22.2889C89.0047 22.1622 89.0982 22.0559 89.2168 21.9847C89.3354 21.9136 89.4733 21.8812 89.6111 21.892C89.682 21.8814 89.7543 21.8871 89.8227 21.9085C89.891 21.93 89.9536 21.9666 90.0058 22.0158C90.0579 22.0649 90.0982 22.1252 90.1237 22.1922C90.1492 22.2591 90.1591 22.331 90.1528 22.4023V22.415C90.1528 22.6172 89.9454 22.6135 89.4336 22.6732C88.8941 22.7366 88.3413 22.8769 88.3413 23.5245C88.34 23.6469 88.3647 23.7683 88.4138 23.8804C88.4629 23.9926 88.5353 24.0931 88.6262 24.1752C88.717 24.2573 88.8243 24.3191 88.9408 24.3567C89.0574 24.3942 89.1806 24.4066 89.3023 24.393V24.3907ZM89.4231 23.9431C89.1098 23.9431 88.8837 23.802 88.8837 23.5275C88.8837 23.229 89.1471 23.1253 89.4679 23.0798C89.7033 23.0678 89.9352 23.0174 90.1543 22.9306V23.2977C90.1517 23.3893 90.1304 23.4795 90.0916 23.5626C90.0529 23.6457 89.9975 23.72 89.9289 23.7809C89.8603 23.8418 89.78 23.888 89.6929 23.9167C89.6058 23.9453 89.5137 23.9558 89.4224 23.9475L89.4231 23.9431ZM91.9972 22.6381C91.9873 22.5462 91.9973 22.4532 92.0265 22.3654C92.0557 22.2777 92.1033 22.1973 92.1663 22.1296C92.2293 22.0618 92.3061 22.0085 92.3914 21.973C92.4768 21.9376 92.5689 21.9209 92.6613 21.9241C92.7465 21.9203 92.8316 21.9352 92.9105 21.9678C92.9893 22.0005 93.0601 22.0501 93.1177 22.113C93.1754 22.176 93.2185 22.2508 93.244 22.3323C93.2696 22.4137 93.2769 22.4998 93.2656 22.5844V24.3295H93.82V22.5172C93.84 22.3805 93.8296 22.241 93.7894 22.1087C93.7493 21.9764 93.6804 21.8546 93.5878 21.7521C93.4951 21.6495 93.3809 21.5687 93.2534 21.5153C93.1259 21.462 92.9881 21.4375 92.85 21.4436C92.6755 21.4301 92.501 21.471 92.3506 21.5606C92.2001 21.6503 92.0812 21.7843 92.0099 21.9442H91.9748V21.4809H91.4429V24.3295H91.9972V22.6381ZM95.7621 24.387C96.0437 24.4111 96.3236 24.3245 96.5422 24.1454C96.7608 23.9663 96.901 23.709 96.9328 23.4282H96.3993C96.3709 23.5714 96.2919 23.6996 96.1769 23.7894C96.0618 23.8793 95.9184 23.9248 95.7726 23.9177C95.3033 23.9177 95.0011 23.526 95.0011 22.9052C95.0011 22.2844 95.3092 21.9114 95.7726 21.9114C95.9183 21.9048 96.0615 21.9505 96.1764 22.0402C96.2914 22.13 96.3704 22.2579 96.3993 22.4008H96.9387C96.9055 22.1198 96.7642 21.8627 96.5447 21.684C96.3252 21.5054 96.0448 21.4191 95.7629 21.4436C95.576 21.4434 95.3912 21.4826 95.2205 21.5587C95.0498 21.6348 94.8971 21.7461 94.7723 21.8852C94.6475 22.0244 94.5535 22.1883 94.4964 22.3662C94.4392 22.5441 94.4203 22.7321 94.4408 22.9179C94.4198 23.1037 94.4386 23.2919 94.4958 23.4699C94.553 23.648 94.6474 23.8118 94.7726 23.9507C94.8979 24.0896 95.0512 24.2003 95.2224 24.2755C95.3936 24.3507 95.5789 24.3887 95.7659 24.387H95.7621ZM98.7555 24.387C99.0115 24.4129 99.2686 24.3507 99.4845 24.2107C99.7003 24.0707 99.8619 23.8613 99.9426 23.617L99.4203 23.5222C99.3693 23.6517 99.2778 23.7612 99.1595 23.8343C99.0412 23.9075 98.9023 23.9404 98.7638 23.9281C98.6523 23.9324 98.5412 23.9127 98.4379 23.8705C98.3347 23.8283 98.2416 23.7645 98.165 23.6834C98.0884 23.6023 98.0301 23.5057 97.9938 23.4002C97.9576 23.2947 97.9444 23.1826 97.955 23.0716H99.9807V22.8754C100.008 22.6956 99.9949 22.5122 99.9435 22.3379C99.8921 22.1636 99.8032 22.0027 99.6831 21.8663C99.563 21.7299 99.4146 21.6214 99.2482 21.5484C99.0817 21.4754 98.9014 21.4396 98.7197 21.4436C98.5329 21.4445 98.3483 21.4847 98.178 21.5617C98.0077 21.6386 97.8555 21.7505 97.7313 21.8902C97.6071 22.0298 97.5137 22.194 97.4571 22.3721C97.4005 22.5502 97.382 22.7382 97.4028 22.9239C97.3817 23.1121 97.4014 23.3026 97.4605 23.4825C97.5197 23.6624 97.617 23.8274 97.7458 23.9663C97.8745 24.1052 98.0317 24.2146 98.2066 24.2872C98.3815 24.3598 98.57 24.3939 98.7593 24.387H98.7555ZM97.9579 22.6568C97.9605 22.4554 98.0424 22.2631 98.1859 22.1217C98.3293 21.9803 98.5228 21.9013 98.7242 21.9017C98.822 21.9 98.919 21.9187 99.0092 21.9565C99.0993 21.9944 99.1806 22.0507 99.2478 22.1217C99.3149 22.1928 99.3666 22.2771 99.3994 22.3692C99.4322 22.4613 99.4454 22.5592 99.4382 22.6568H97.9579ZM47.998 27.4498H47.384V27.1939C47.384 26.9417 47.4877 26.8044 47.757 26.8044C47.8417 26.8047 47.9256 26.8191 48.0055 26.8469L48.1353 26.3993C47.9865 26.3471 47.8296 26.3219 47.672 26.3247C47.5629 26.315 47.4531 26.3286 47.3497 26.3645C47.2462 26.4003 47.1515 26.4576 47.0718 26.5327C46.9921 26.6077 46.9292 26.6988 46.8872 26.7999C46.8452 26.901 46.8251 27.0098 46.8281 27.1193V27.4491H46.3887V27.8967H46.8281V30.2985H47.3847V27.8945H47.9988L47.998 27.4498ZM49.6559 30.3597C49.8431 30.3615 50.0285 30.3237 50.2 30.2486C50.3715 30.1735 50.525 30.0628 50.6506 29.924C50.7761 29.7851 50.8707 29.6212 50.9282 29.4431C50.9857 29.2649 51.0047 29.0766 50.984 28.8905C51.0038 28.7043 50.9841 28.516 50.9264 28.3379C50.8687 28.1597 50.7741 27.9957 50.6489 27.8564C50.5236 27.7172 50.3705 27.6058 50.1994 27.5296C50.0284 27.4534 49.8432 27.414 49.6559 27.414C49.4686 27.414 49.2834 27.4534 49.1124 27.5296C48.9413 27.6058 48.7882 27.7172 48.6629 27.8564C48.5377 27.9957 48.4431 28.1597 48.3854 28.3379C48.3277 28.516 48.3081 28.7043 48.3278 28.8905C48.3077 29.0763 48.3271 29.2642 48.3849 29.4419C48.4426 29.6196 48.5373 29.783 48.6628 29.9215C48.7883 30.0599 48.9416 30.1702 49.1128 30.2451C49.284 30.32 49.4691 30.3577 49.6559 30.3559V30.3597ZM49.6559 29.8941C49.1336 29.8941 48.8859 29.436 48.8859 28.8891C48.8859 28.3422 49.1306 27.8803 49.6559 27.8803C50.1812 27.8803 50.4222 28.3436 50.4222 28.8891C50.4222 29.4345 50.1789 29.8903 49.6582 29.8903L49.6559 29.8941ZM51.6018 30.2985H52.1547V28.5585C52.1541 28.4716 52.1714 28.3855 52.2053 28.3056C52.2393 28.2256 52.2893 28.1534 52.3522 28.0934C52.4151 28.0335 52.4895 27.987 52.5711 27.9569C52.6526 27.9268 52.7394 27.9137 52.8262 27.9184C52.9154 27.9163 53.0039 27.9355 53.0843 27.9743L53.2626 27.511C53.1515 27.4397 53.0215 27.4036 52.8896 27.4073C52.7319 27.4017 52.5767 27.4469 52.4466 27.536C52.3164 27.6252 52.2183 27.7537 52.1666 27.9027H52.1367V27.4498H51.6018V30.2985ZM57.1827 27.4976H57.7356C57.7196 27.3405 57.6722 27.1883 57.5963 27.0499C57.5204 26.9114 57.4174 26.7897 57.2936 26.6918C57.1697 26.5939 57.0275 26.5219 56.8753 26.4799C56.7231 26.438 56.564 26.4271 56.4075 26.4478C55.645 26.4478 55.0645 26.8835 55.0645 27.5386C55.0645 28.0668 55.4428 28.3772 56.0531 28.5421L56.5008 28.6645C56.9067 28.7719 57.22 28.9055 57.22 29.2435C57.22 29.6165 56.8656 29.859 56.3777 29.859C55.936 29.859 55.5689 29.6628 55.5353 29.2487H54.96C54.9974 29.9366 55.5293 30.3611 56.3777 30.3611C57.273 30.3611 57.7833 29.8918 57.7833 29.2487C57.7833 28.5645 57.173 28.2989 56.691 28.1802L56.318 28.084C56.0195 28.0094 55.6263 27.8691 55.6278 27.505C55.6278 27.1819 55.9263 26.9432 56.3904 26.9432C56.8321 26.9409 57.1417 27.1476 57.1827 27.4976ZM59.627 30.3559C59.8142 30.3578 59.9996 30.3199 60.1711 30.2448C60.3426 30.1697 60.4961 30.0591 60.6217 29.9202C60.7472 29.7814 60.8418 29.6175 60.8993 29.4393C60.9568 29.2612 60.9758 29.0729 60.9551 28.8868C60.9749 28.7006 60.9552 28.5123 60.8975 28.3341C60.8398 28.156 60.7452 27.9919 60.62 27.8527C60.4947 27.7135 60.3416 27.6021 60.1705 27.5259C59.9995 27.4497 59.8143 27.4103 59.627 27.4103C59.4397 27.4103 59.2545 27.4497 59.0835 27.5259C58.9124 27.6021 58.7593 27.7135 58.634 27.8527C58.5088 27.9919 58.4142 28.156 58.3565 28.3341C58.2988 28.5123 58.2791 28.7006 58.2989 28.8868C58.2782 29.0729 58.2972 29.2612 58.3547 29.4393C58.4122 29.6175 58.5068 29.7814 58.6323 29.9202C58.7579 30.0591 58.9114 30.1697 59.0829 30.2448C59.2544 30.3199 59.4398 30.3578 59.627 30.3559ZM59.627 29.8903C59.1047 29.8903 58.857 29.4322 58.857 28.8853C58.857 28.3384 59.1017 27.8766 59.627 27.8766C60.1523 27.8766 60.3933 28.3399 60.3933 28.8853C60.3933 29.4307 60.15 29.8903 59.6292 29.8903H59.627ZM62.7704 30.3559C63.0523 30.3807 63.3328 30.2943 63.5519 30.1152C63.771 29.936 63.9115 29.6784 63.9433 29.3972H63.4038C63.3754 29.5403 63.2965 29.6685 63.1814 29.7583C63.0664 29.8482 62.9229 29.8937 62.7771 29.8866C62.3078 29.8866 62.0056 29.4949 62.0056 28.8741C62.0056 28.2534 62.3138 27.8803 62.7771 27.8803C62.9228 27.8737 63.066 27.9194 63.181 28.0091C63.2959 28.0989 63.375 28.2268 63.4038 28.3698H63.9433C63.91 28.0887 63.7687 27.8316 63.5492 27.653C63.3297 27.4743 63.0494 27.388 62.7674 27.4125C62.5805 27.4123 62.3957 27.4516 62.225 27.5277C62.0543 27.6038 61.9016 27.715 61.7768 27.8542C61.6521 27.9933 61.558 28.1572 61.5009 28.3351C61.4438 28.5131 61.4248 28.7011 61.4453 28.8868C61.4243 29.0728 61.4432 29.2612 61.5005 29.4394C61.5579 29.6176 61.6524 29.7816 61.7779 29.9205C61.9034 30.0594 62.057 30.17 62.2285 30.2451C62.4 30.3202 62.5854 30.3579 62.7726 30.3559H62.7704ZM64.5402 30.2985H65.0945V27.4498H64.5402V30.2985ZM64.82 27.0103C64.8846 27.0065 64.9467 26.9839 64.9986 26.9452C65.0505 26.9065 65.0899 26.8535 65.112 26.7926C65.1341 26.7318 65.1378 26.6658 65.1228 26.6028C65.1078 26.5398 65.0747 26.4827 65.0275 26.4383C64.9804 26.394 64.9212 26.3644 64.8575 26.3533C64.7937 26.3422 64.7281 26.35 64.6687 26.3757C64.6093 26.4015 64.5588 26.4441 64.5233 26.4983C64.4879 26.5525 64.4691 26.6158 64.4693 26.6806C64.4726 26.7703 64.5111 26.8552 64.5764 26.9169C64.6417 26.9786 64.7286 27.0122 64.8185 27.0103H64.82ZM66.6688 30.3619C66.8378 30.3744 67.0068 30.3384 67.156 30.2582C67.3052 30.178 67.4284 30.0568 67.5112 29.909H67.5336V30.2985H68.0753V28.4063C68.0802 28.2647 68.054 28.1237 67.9985 27.9933C67.943 27.8628 67.8597 27.7462 67.7543 27.6514C67.6489 27.5567 67.524 27.4862 67.3884 27.4449C67.2528 27.4036 67.1098 27.3926 66.9695 27.4125C66.7213 27.3899 66.4723 27.4485 66.2603 27.5796C66.0482 27.7106 65.8844 27.907 65.7936 28.1392L66.3159 28.2578C66.3713 28.1311 66.4648 28.0248 66.5834 27.9537C66.702 27.8825 66.8398 27.8501 66.9777 27.8609C67.0486 27.8504 67.1209 27.856 67.1893 27.8775C67.2576 27.8989 67.3202 27.9356 67.3724 27.9847C67.4245 28.0338 67.4648 28.0941 67.4903 28.1611C67.5158 28.228 67.5257 28.2999 67.5194 28.3713V28.3839C67.5194 28.5861 67.312 28.5824 66.8002 28.6421C66.2607 28.7055 65.7078 28.8458 65.7078 29.4934C65.7066 29.6157 65.7313 29.7369 65.7803 29.849C65.8293 29.961 65.9016 30.0614 65.9922 30.1435C66.0829 30.2256 66.19 30.2875 66.3064 30.3251C66.4227 30.3628 66.5458 30.3753 66.6673 30.3619H66.6688ZM66.7897 29.9142C66.4763 29.9142 66.2503 29.7732 66.2503 29.4986C66.2503 29.2002 66.5136 29.0965 66.8345 29.051C67.0699 29.0389 67.3018 28.9885 67.5209 28.9017V29.2688C67.518 29.3604 67.4965 29.4504 67.4575 29.5333C67.4186 29.6162 67.3631 29.6902 67.2945 29.7509C67.2258 29.8116 67.1455 29.8575 67.0584 29.886C66.9714 29.9145 66.8794 29.9248 66.7882 29.9165L66.7897 29.9142ZM69.3675 26.4978H68.8132V30.2985H69.3675V26.4978ZM72.114 26.4978H71.541V30.2985H72.114V26.4978ZM73.457 28.6048C73.4471 28.5129 73.4571 28.4199 73.4863 28.3321C73.5154 28.2444 73.5631 28.1639 73.6261 28.0962C73.689 28.0285 73.7658 27.9751 73.8512 27.9397C73.9366 27.9042 74.0286 27.8876 74.121 27.8908C74.2063 27.8869 74.2914 27.9019 74.3703 27.9345C74.4491 27.9672 74.5199 28.0167 74.5775 28.0797C74.6351 28.1427 74.6782 28.2175 74.7038 28.299C74.7293 28.3804 74.7367 28.4665 74.7254 28.5511V30.2985H75.2842V28.4862C75.3043 28.3494 75.2938 28.2099 75.2537 28.0776C75.2135 27.9453 75.1447 27.8236 75.052 27.721C74.9593 27.6184 74.8452 27.5376 74.7176 27.4843C74.5901 27.4309 74.4524 27.4064 74.3143 27.4125C74.1397 27.399 73.9652 27.4399 73.8148 27.5296C73.6644 27.6192 73.5454 27.7532 73.4742 27.9131H73.4391V27.4498H72.9071V30.2985H73.4615L73.457 28.6048ZM76.5765 28.6048C76.5666 28.5129 76.5766 28.4199 76.6058 28.3321C76.6349 28.2444 76.6826 28.1639 76.7456 28.0962C76.8086 28.0285 76.8853 27.9751 76.9707 27.9397C77.0561 27.9042 77.1481 27.8876 77.2405 27.8908C77.3258 27.8869 77.4109 27.9019 77.4898 27.9345C77.5686 27.9672 77.6394 28.0167 77.697 28.0797C77.7546 28.1427 77.7978 28.2175 77.8233 28.299C77.8489 28.3804 77.8562 28.4665 77.8449 28.5511V30.2985H78.3993V28.4862C78.4193 28.3494 78.4089 28.2099 78.3687 28.0776C78.3286 27.9453 78.2597 27.8236 78.167 27.721C78.0744 27.6184 77.9602 27.5376 77.8327 27.4843C77.7051 27.4309 77.5674 27.4064 77.4293 27.4125C77.2547 27.399 77.0803 27.4399 76.9298 27.5296C76.7794 27.6192 76.6604 27.7532 76.5892 27.9131H76.5526V27.4498H76.0229V30.2985H76.5773L76.5765 28.6048ZM80.3414 30.3537C80.5286 30.3556 80.714 30.3177 80.8855 30.2426C81.057 30.1675 81.2105 30.0569 81.3361 29.918C81.4616 29.7791 81.5562 29.6152 81.6137 29.4371C81.6712 29.2589 81.6902 29.0706 81.6695 28.8846C81.6893 28.6983 81.6696 28.51 81.6119 28.3319C81.5542 28.1537 81.4596 27.9897 81.3344 27.8505C81.2091 27.7112 81.056 27.5999 80.8849 27.5237C80.7139 27.4474 80.5287 27.4081 80.3414 27.4081C80.1541 27.4081 79.9689 27.4474 79.7979 27.5237C79.6268 27.5999 79.4737 27.7112 79.3484 27.8505C79.2232 27.9897 79.1286 28.1537 79.0709 28.3319C79.0132 28.51 78.9936 28.6983 79.0133 28.8846C78.9923 29.0709 79.011 29.2595 79.0684 29.438C79.1258 29.6164 79.2204 29.7807 79.3461 29.9198C79.4717 30.0589 79.6255 30.1697 79.7972 30.2449C79.969 30.3201 80.1547 30.358 80.3422 30.3559L80.3414 30.3537ZM80.3414 29.8881C79.8191 29.8881 79.5714 29.43 79.5714 28.8831C79.5714 28.3362 79.8161 27.8743 80.3414 27.8743C80.8667 27.8743 81.1077 28.3377 81.1077 28.8831C81.1077 29.4285 80.8652 29.8903 80.3436 29.8903L80.3414 29.8881ZM84.6219 27.4476H84.025L83.3057 29.6396H83.2759L82.5544 27.4476H81.9575L82.9983 30.2985H83.5952L84.6219 27.4476ZM85.9574 30.3574C86.1264 30.3699 86.2954 30.3339 86.4446 30.2537C86.5938 30.1735 86.717 30.0523 86.7998 29.9045H86.8222V30.2985H87.3638V28.4063C87.3687 28.2647 87.3425 28.1237 87.2871 27.9933C87.2316 27.8628 87.1483 27.7462 87.0429 27.6514C86.9374 27.5567 86.8126 27.4862 86.677 27.4449C86.5414 27.4036 86.3984 27.3926 86.2581 27.4125C86.0098 27.3899 85.7609 27.4485 85.5489 27.5796C85.3368 27.7106 85.173 27.907 85.0822 28.1392L85.6045 28.2578C85.6599 28.1311 85.7534 28.0248 85.872 27.9537C85.9906 27.8825 86.1284 27.8501 86.2663 27.8609C86.3372 27.8504 86.4095 27.856 86.4778 27.8775C86.5462 27.8989 86.6088 27.9356 86.6609 27.9847C86.7131 28.0338 86.7534 28.0941 86.7789 28.1611C86.8043 28.228 86.8143 28.2999 86.808 28.3713V28.3839C86.808 28.5861 86.6006 28.5824 86.0887 28.6421C85.5493 28.7055 84.9964 28.8458 84.9964 29.4934C84.9951 29.6161 85.0199 29.7376 85.0691 29.8499C85.1184 29.9623 85.191 30.0629 85.2821 30.145C85.3732 30.2272 85.4807 30.289 85.5975 30.3264C85.7143 30.3638 85.8378 30.3759 85.9597 30.3619L85.9574 30.3574ZM86.0783 29.9097C85.7649 29.9097 85.5388 29.7687 85.5388 29.4942C85.5388 29.1957 85.8022 29.092 86.1231 29.0465C86.3585 29.0345 86.5903 28.9841 86.8095 28.8973V29.2644C86.8072 29.3559 86.7861 29.4461 86.7477 29.5293C86.7092 29.6124 86.6542 29.6868 86.5859 29.7479C86.5176 29.809 86.4376 29.8555 86.3506 29.8844C86.2637 29.9134 86.1718 29.9243 86.0805 29.9165L86.0783 29.9097ZM89.4313 27.4431H88.8471V26.7604H88.2928V27.4431H87.8757V27.8908H88.2928V29.5732C88.2902 29.6799 88.3106 29.7858 88.3525 29.8839C88.3944 29.982 88.4569 30.0699 88.5356 30.1418C88.6144 30.2138 88.7077 30.2679 88.8092 30.3008C88.9106 30.3336 89.018 30.3442 89.1239 30.332C89.2464 30.333 89.368 30.3128 89.4836 30.2724L89.3836 29.8142C89.3197 29.8293 89.2544 29.8373 89.1888 29.8381C89.009 29.8381 88.8479 29.7784 88.8479 29.4576V27.8908H89.4321L89.4313 27.4431ZM90.0461 30.2985H90.6005V27.4498H90.0461V30.2985ZM90.3259 27.0103C90.3905 27.0065 90.4526 26.9839 90.5045 26.9452C90.5564 26.9065 90.5959 26.8535 90.6179 26.7926C90.64 26.7318 90.6438 26.6658 90.6288 26.6028C90.6138 26.5398 90.5806 26.4827 90.5335 26.4383C90.4863 26.394 90.4272 26.3644 90.3634 26.3533C90.2997 26.3422 90.234 26.35 90.1746 26.3757C90.1153 26.4015 90.0647 26.4441 90.0293 26.4983C89.9939 26.5525 89.9751 26.6158 89.9753 26.6806C89.9786 26.7706 90.0172 26.8557 90.0829 26.9175C90.1485 26.9792 90.2358 27.0126 90.3259 27.0103ZM92.5456 30.3559C92.7328 30.3578 92.9182 30.3199 93.0897 30.2448C93.2612 30.1697 93.4147 30.0591 93.5403 29.9202C93.6658 29.7814 93.7604 29.6175 93.8179 29.4393C93.8754 29.2612 93.8944 29.0729 93.8737 28.8868C93.8935 28.7006 93.8739 28.5123 93.8161 28.3341C93.7584 28.156 93.6638 27.9919 93.5386 27.8527C93.4133 27.7135 93.2602 27.6021 93.0891 27.5259C92.9181 27.4497 92.7329 27.4103 92.5456 27.4103C92.3583 27.4103 92.1732 27.4497 92.0021 27.5259C91.831 27.6021 91.6779 27.7135 91.5527 27.8527C91.4274 27.9919 91.3329 28.156 91.2751 28.3341C91.2174 28.5123 91.1978 28.7006 91.2175 28.8868C91.1968 29.0729 91.2159 29.2613 91.2734 29.4395C91.3309 29.6177 91.4256 29.7817 91.5512 29.9205C91.6768 30.0594 91.8305 30.17 92.002 30.2451C92.1736 30.3201 92.3584 30.3579 92.5456 30.3559ZM92.5456 29.8903C92.0233 29.8903 91.7756 29.4322 91.7756 28.8853C91.7756 28.3384 92.0204 27.8766 92.5456 27.8766C93.0709 27.8766 93.3119 28.3399 93.3119 28.8853C93.3119 29.4307 93.0686 29.8903 92.5479 29.8903H92.5456ZM95.0436 28.607C95.0337 28.5151 95.0437 28.4221 95.0729 28.3344C95.1021 28.2466 95.1497 28.1662 95.2127 28.0985C95.2757 28.0308 95.3524 27.9774 95.4378 27.9419C95.5232 27.9065 95.6153 27.8898 95.7077 27.893C95.7929 27.8892 95.878 27.9041 95.9569 27.9368C96.0357 27.9694 96.1065 28.019 96.1641 28.0819C96.2217 28.1449 96.2649 28.2198 96.2904 28.3012C96.316 28.3826 96.3233 28.4687 96.312 28.5533V30.2985H96.8664V28.4862C96.8864 28.3494 96.876 28.2099 96.8358 28.0776C96.7957 27.9453 96.7268 27.8236 96.6341 27.721C96.5415 27.6184 96.4273 27.5376 96.2998 27.4843C96.1723 27.4309 96.0345 27.4064 95.8964 27.4125C95.7221 27.3989 95.5478 27.4394 95.3974 27.5286C95.247 27.6179 95.1279 27.7514 95.0563 27.9109H95.0212V27.4476H94.4893V30.2985H95.0436V28.607ZM100.098 30.3522C100.457 30.3578 100.805 30.2317 101.077 29.9978L101.333 30.2962H101.96L101.421 29.6508C101.643 29.3359 101.754 28.9561 101.736 28.5712H101.236C101.238 28.8045 101.184 29.0349 101.078 29.2427L100.318 28.3339L100.578 28.1429C100.727 28.0539 100.851 27.9288 100.939 27.7791C101.027 27.6294 101.076 27.46 101.082 27.2864C101.078 27.169 101.05 27.0536 101 26.9474C100.95 26.8411 100.878 26.7464 100.79 26.6688C100.701 26.5913 100.598 26.5327 100.486 26.4966C100.375 26.4605 100.257 26.4477 100.14 26.459C100.016 26.4485 99.8924 26.464 99.7756 26.5044C99.6588 26.5449 99.5518 26.6094 99.4614 26.6937C99.3711 26.7781 99.2994 26.8805 99.2511 26.9943C99.2028 27.1081 99.1788 27.2307 99.1808 27.3543C99.2074 27.6946 99.3555 28.0139 99.5979 28.2541C99.1637 28.5526 98.869 28.8346 98.869 29.2875C98.8716 29.4411 98.9066 29.5924 98.9716 29.7315C99.0367 29.8706 99.1304 29.9945 99.2466 30.0949C99.3627 30.1954 99.4988 30.2703 99.6459 30.3146C99.7929 30.3589 99.9477 30.3717 100.1 30.3522H100.098ZM100.766 29.6307C100.58 29.7897 100.344 29.8789 100.1 29.8829C100.015 29.8897 99.9294 29.8792 99.8486 29.852C99.7677 29.8247 99.6932 29.7814 99.6296 29.7245C99.566 29.6677 99.5146 29.5985 99.4785 29.5212C99.4424 29.4439 99.4223 29.3601 99.4196 29.2748C99.441 29.1573 99.4873 29.0456 99.5553 28.9475C99.6234 28.8493 99.7117 28.7668 99.8143 28.7055L99.9143 28.6309L100.766 29.6307ZM100.011 27.9654C99.8458 27.8051 99.7376 27.5956 99.7024 27.3685C99.7035 27.2505 99.7512 27.1378 99.8351 27.0548C99.9189 26.9718 100.032 26.9253 100.15 26.9253C100.256 26.9211 100.359 26.9583 100.438 27.0289C100.517 27.0994 100.565 27.1979 100.573 27.3036C100.569 27.4089 100.536 27.5111 100.478 27.5991C100.42 27.6871 100.339 27.7575 100.243 27.8027L100.011 27.9654ZM48.7494 33.4665H49.3023C49.2862 33.3096 49.2389 33.1576 49.1631 33.0194C49.0873 32.8811 48.9846 32.7595 48.861 32.6616C48.7374 32.5637 48.5954 32.4916 48.4435 32.4496C48.2916 32.4075 48.1327 32.3963 47.9764 32.4167C47.2139 32.4167 46.6334 32.8524 46.6334 33.5075C46.6334 34.0358 47.0117 34.3461 47.622 34.511L48.0697 34.6334C48.4756 34.7408 48.7889 34.8744 48.7889 35.2124C48.7889 35.5854 48.4345 35.8279 47.9466 35.8279C47.5049 35.8279 47.1378 35.6317 47.1042 35.2176H46.5274C46.5648 35.9055 47.0967 36.3301 47.9451 36.3301C48.8404 36.3301 49.3508 35.8608 49.3508 35.2176C49.3508 34.5334 48.7404 34.2678 48.2584 34.1492L47.8854 34.0529C47.5869 33.9783 47.1937 33.838 47.1952 33.4739C47.1952 33.1509 47.4937 32.9121 47.9578 32.9121C48.3987 32.9099 48.7083 33.1165 48.7494 33.4665ZM51.7988 35.0855C51.8046 35.1772 51.7915 35.2692 51.7604 35.3556C51.7293 35.442 51.6807 35.5212 51.6178 35.5881C51.5548 35.655 51.4788 35.7083 51.3944 35.7447C51.3101 35.7811 51.2191 35.7998 51.1273 35.7996C51.0459 35.8007 50.9652 35.7845 50.8905 35.7521C50.8158 35.7197 50.7489 35.6719 50.694 35.6118C50.6392 35.5517 50.5977 35.4806 50.5723 35.4032C50.5469 35.3259 50.5382 35.2441 50.5468 35.1631V33.4187H49.9909V35.2303C49.9909 35.9369 50.3789 36.304 50.9258 36.304C51.1054 36.3134 51.2837 36.2677 51.4366 36.173C51.5896 36.0783 51.7099 35.9392 51.7816 35.7742H51.8114V36.2674H52.3569V33.4187H51.7988V35.0855ZM55.2309 34.1156C55.1706 33.8836 55.0282 33.6814 54.83 33.5467C54.6318 33.4119 54.3914 33.3537 54.1535 33.3829C53.5096 33.3829 53.0537 33.7224 53.0537 34.2268C53.0537 34.6312 53.2984 34.8983 53.8327 35.0184L54.3147 35.1243C54.5892 35.1855 54.7168 35.3079 54.7168 35.4862C54.7168 35.71 54.481 35.8794 54.1199 35.8794C53.9836 35.8973 53.8456 35.8639 53.7325 35.7857C53.6195 35.7076 53.5395 35.5902 53.5081 35.4564L52.9754 35.5369C53.0679 36.0413 53.4872 36.3248 54.1274 36.3248C54.8153 36.3248 55.2921 35.9592 55.2921 35.4437C55.2921 35.0415 55.0362 34.7923 54.5131 34.6722L54.0602 34.5685C53.7469 34.4939 53.6126 34.3887 53.6126 34.1954C53.6126 33.9768 53.8483 33.8224 54.1632 33.8224C54.2873 33.8122 54.4112 33.8444 54.5147 33.9138C54.6181 33.9832 54.6949 34.0857 54.7325 34.2044L55.2309 34.1156ZM57.2245 33.4202H56.6403V32.7375H56.0859V33.4202H55.6689V33.8679H56.0859V35.5504C56.0834 35.657 56.1038 35.7629 56.1457 35.861C56.1876 35.9591 56.25 36.0471 56.3288 36.119C56.4076 36.1909 56.5008 36.2451 56.6023 36.2779C56.7038 36.3107 56.8111 36.3214 56.9171 36.3092C57.0395 36.3102 57.1612 36.29 57.2767 36.2495L57.1768 35.7914C57.1129 35.8064 57.0476 35.8144 56.982 35.8152C56.8022 35.8152 56.641 35.7556 56.641 35.4347V33.8679H57.2282L57.2245 33.4202ZM58.6653 36.3301C58.8342 36.3426 59.0032 36.3066 59.1524 36.2264C59.3016 36.1461 59.4249 36.025 59.5076 35.8772H59.53V36.2674H60.0717V34.3752C60.0766 34.2336 60.0504 34.0926 59.9949 33.9622C59.9395 33.8318 59.8561 33.7151 59.7507 33.6203C59.6453 33.5256 59.5204 33.4551 59.3848 33.4138C59.2492 33.3726 59.1063 33.3615 58.9659 33.3814C58.7177 33.3588 58.4688 33.4174 58.2567 33.5485C58.0446 33.6796 57.8809 33.876 57.7901 34.1081L58.3123 34.2268C58.3677 34.1 58.4612 33.9937 58.5798 33.9226C58.6984 33.8515 58.8363 33.819 58.9741 33.8298C59.045 33.8193 59.1173 33.825 59.1857 33.8464C59.254 33.8678 59.3166 33.9045 59.3688 33.9536C59.4209 34.0027 59.4612 34.063 59.4867 34.13C59.5122 34.197 59.5221 34.2688 59.5158 34.3402V34.3529C59.5158 34.5551 59.3084 34.5513 58.7966 34.611C58.2571 34.6744 57.7043 34.8147 57.7043 35.4623C57.7029 35.5851 57.7277 35.7067 57.777 35.8191C57.8263 35.9315 57.899 36.0321 57.9901 36.1142C58.0813 36.1964 58.189 36.2582 58.3059 36.2955C58.4228 36.3329 58.5463 36.3449 58.6682 36.3308L58.6653 36.3301ZM58.7861 35.8824C58.4728 35.8824 58.2467 35.7414 58.2467 35.4668C58.2467 35.1684 58.5101 35.0647 58.8309 35.0191C59.0663 35.0071 59.2982 34.9567 59.5173 34.8699V35.237C59.5145 35.3282 59.4931 35.4179 59.4545 35.5006C59.4159 35.5832 59.3608 35.6571 59.2927 35.7178C59.2245 35.7785 59.1447 35.8247 59.0581 35.8535C58.9716 35.8823 58.88 35.8931 58.7891 35.8854L58.7861 35.8824ZM60.8096 36.2674H61.364V33.4187H60.8096V36.2674ZM61.0894 32.9793C61.154 32.9755 61.2161 32.9528 61.268 32.9141C61.3199 32.8754 61.3593 32.8224 61.3814 32.7615C61.4035 32.7007 61.4072 32.6347 61.3922 32.5717C61.3772 32.5088 61.3441 32.4516 61.2969 32.4072C61.2498 32.3629 61.1907 32.3333 61.1269 32.3222C61.0631 32.3111 60.9975 32.3189 60.9381 32.3447C60.8787 32.3704 60.8282 32.413 60.7928 32.4672C60.7573 32.5214 60.7385 32.5847 60.7387 32.6495C60.742 32.7401 60.7811 32.8256 60.8474 32.8875C60.9137 32.9493 61.0018 32.9823 61.0924 32.9793H61.0894ZM62.6637 34.5759C62.6538 34.484 62.6638 34.391 62.693 34.3033C62.7221 34.2156 62.7698 34.1351 62.8328 34.0674C62.8957 33.9997 62.9725 33.9463 63.0579 33.9109C63.1433 33.8754 63.2353 33.8587 63.3277 33.8619C63.413 33.8581 63.4981 33.8731 63.5769 33.9057C63.6558 33.9383 63.7266 33.9879 63.7842 34.0509C63.8418 34.1138 63.8849 34.1887 63.9105 34.2701C63.936 34.3516 63.9434 34.4376 63.9321 34.5222V36.2674H64.4865V34.4551C64.5065 34.3183 64.496 34.1788 64.4559 34.0465C64.4157 33.9143 64.3469 33.7925 64.2542 33.6899C64.1616 33.5873 64.0474 33.5065 63.9199 33.4532C63.7923 33.3998 63.6546 33.3753 63.5165 33.3814C63.3419 33.368 63.1674 33.4089 63.017 33.4985C62.8666 33.5881 62.7476 33.7221 62.6764 33.8821H62.645V33.4187H62.1131V36.2674H62.6674L62.6637 34.5759ZM66.0578 36.3308C66.2267 36.3433 66.3957 36.3073 66.5449 36.2271C66.6942 36.1469 66.8174 36.0257 66.9001 35.8779H66.9225V36.2674H67.4642V34.3752C67.4691 34.2336 67.4429 34.0926 67.3874 33.9622C67.332 33.8318 67.2486 33.7151 67.1432 33.6203C67.0378 33.5256 66.9129 33.4551 66.7773 33.4138C66.6418 33.3726 66.4988 33.3615 66.3585 33.3814C66.1102 33.3588 65.8613 33.4174 65.6492 33.5485C65.4371 33.6796 65.2734 33.876 65.1826 34.1081L65.7049 34.2268C65.7603 34.1 65.8538 33.9937 65.9724 33.9226C66.091 33.8515 66.2288 33.819 66.3667 33.8298C66.4375 33.8193 66.5098 33.825 66.5782 33.8464C66.6465 33.8678 66.7092 33.9045 66.7613 33.9536C66.8134 34.0027 66.8538 34.063 66.8792 34.13C66.9047 34.197 66.9146 34.2688 66.9083 34.3402V34.3529C66.9083 34.5551 66.7009 34.5513 66.1891 34.611C65.6496 34.6744 65.0968 34.8147 65.0968 35.4623C65.0954 35.5851 65.1202 35.7067 65.1695 35.8191C65.2188 35.9315 65.2915 36.0321 65.3827 36.1142C65.4738 36.1964 65.5815 36.2582 65.6984 36.2955C65.8153 36.3329 65.9388 36.3449 66.0608 36.3308H66.0578ZM66.1786 35.8831C65.8653 35.8831 65.6392 35.7421 65.6392 35.4676C65.6392 35.1691 65.9026 35.0654 66.2234 35.0199C66.4588 35.0079 66.6907 34.9575 66.9098 34.8707V35.2378C66.9069 35.3289 66.8855 35.4185 66.8468 35.5011C66.8081 35.5836 66.7531 35.6575 66.6849 35.7181C66.6168 35.7787 66.537 35.8248 66.4505 35.8535C66.364 35.8823 66.2725 35.8931 66.1816 35.8854L66.1786 35.8831ZM68.2499 36.2674H68.793V35.8242H68.8393C68.912 35.9788 69.0286 36.1086 69.1745 36.1973C69.3205 36.2861 69.4893 36.3299 69.66 36.3234C70.3502 36.3234 70.8538 35.7705 70.8538 34.849C70.8538 33.9276 70.3457 33.3822 69.66 33.3822C69.489 33.3737 69.3193 33.4167 69.173 33.5057C69.0267 33.5947 68.9104 33.7255 68.8393 33.8813H68.8057V32.4689H68.2514L68.2499 36.2674ZM68.793 34.8431C68.793 34.2462 69.0527 33.853 69.5391 33.853C70.042 33.853 70.2942 34.2775 70.2942 34.8431C70.2942 35.4086 70.0346 35.8503 69.5391 35.8503C69.0601 35.8503 68.793 35.4422 68.793 34.8431ZM71.4731 36.2674H72.0274V33.4187H71.4731V36.2674ZM71.7529 32.9793C71.8175 32.9755 71.8796 32.9528 71.9315 32.9141C71.9834 32.8754 72.0228 32.8224 72.0449 32.7615C72.067 32.7007 72.0707 32.6347 72.0557 32.5717C72.0407 32.5088 72.0076 32.4516 71.9604 32.4072C71.9133 32.3629 71.8541 32.3333 71.7904 32.3222C71.7266 32.3111 71.661 32.3189 71.6016 32.3447C71.5422 32.3704 71.4917 32.413 71.4562 32.4672C71.4208 32.5214 71.402 32.5847 71.4022 32.6495C71.4055 32.7395 71.4442 32.8246 71.5098 32.8864C71.5755 32.9481 71.6628 32.9815 71.7529 32.9793ZM73.3272 32.4689H72.7728V36.2674H73.3272V32.4689ZM74.0733 36.2674H74.6277V33.4187H74.0733V36.2674ZM74.3531 32.9793C74.4177 32.9755 74.4798 32.9528 74.5317 32.9141C74.5836 32.8754 74.623 32.8224 74.6451 32.7615C74.6672 32.7007 74.6709 32.6347 74.6559 32.5717C74.6409 32.5088 74.6078 32.4516 74.5606 32.4072C74.5135 32.3629 74.4544 32.3333 74.3906 32.3222C74.3268 32.3111 74.2612 32.3189 74.2018 32.3447C74.1424 32.3704 74.0919 32.413 74.0565 32.4672C74.021 32.5214 74.0022 32.5847 74.0024 32.6495C74.0057 32.7395 74.0444 32.8246 74.11 32.8864C74.1757 32.9481 74.263 32.9815 74.3531 32.9793ZM76.7033 33.4187H76.1191V32.736H75.5648V33.4187H75.1477V33.8664H75.5648V35.5489C75.5623 35.6555 75.5826 35.7614 75.6245 35.8595C75.6664 35.9576 75.7289 36.0456 75.8076 36.1175C75.8864 36.1894 75.9797 36.2436 76.0812 36.2764C76.1826 36.3092 76.29 36.3199 76.3959 36.3077C76.5184 36.3087 76.64 36.2885 76.7556 36.248L76.6556 35.7899C76.5917 35.8049 76.5264 35.8129 76.4609 35.8138C76.281 35.8138 76.1199 35.7541 76.1199 35.4332V33.8664H76.7019L76.7033 33.4187ZM77.6457 37.3731C77.8545 37.3783 78.059 37.3128 78.2259 37.1873C78.3929 37.0618 78.5126 36.8835 78.5657 36.6815L79.7527 33.4172H79.1558L78.4343 35.628H78.4045L77.683 33.4172H77.0861L78.1307 36.3032L78.0493 36.527C77.9106 36.9001 77.7121 36.9292 77.4054 36.8479L77.2719 37.3075C77.3908 37.3543 77.5179 37.3771 77.6457 37.3746V37.3731Z" fill="#222222"/>
<path d="M52.8637 15.8918C51.9634 15.9009 51.07 15.7341 50.2336 15.4009C49.4506 15.0882 48.7369 14.6242 48.1333 14.0355C47.5384 13.4523 47.0678 12.7546 46.75 11.9844C46.4183 11.1771 46.2513 10.3115 46.2591 9.43869C46.2507 8.5629 46.4176 7.69429 46.75 6.88399C47.0681 6.11464 47.5386 5.41769 48.1333 4.83515C48.7361 4.2467 49.4498 3.78385 50.2329 3.47349C51.0701 3.14227 51.9634 2.97631 52.8637 2.98479C53.7659 2.97488 54.6612 3.14325 55.4982 3.48021C56.2805 3.79752 56.9925 4.26608 57.5933 4.85903C58.1865 5.44544 58.6568 6.14425 58.9766 6.91458C59.3076 7.7146 59.4745 8.57294 59.4676 9.43869C59.4753 10.3115 59.3084 11.1771 58.9766 11.9844C58.6589 12.7546 58.1883 13.4523 57.5933 14.0355C56.9908 14.6235 56.2788 15.0874 55.4975 15.4009C54.66 15.7349 53.7653 15.9016 52.8637 15.8918ZM52.8637 13.1312C53.3459 13.1368 53.8246 13.0497 54.2739 12.8745C54.6951 12.7071 55.0765 12.4529 55.393 12.1284C55.7179 11.7936 55.9693 11.3946 56.1309 10.957C56.3104 10.4689 56.3989 9.95201 56.3921 9.43197C56.4092 8.74987 56.2526 8.07462 55.937 7.46969C55.6485 6.93103 55.2134 6.48506 54.682 6.18338C54.1264 5.87489 53.4991 5.71866 52.8637 5.73049C52.3827 5.72576 51.9053 5.81445 51.458 5.99163C51.0367 6.159 50.6554 6.41323 50.3388 6.73775C50.0166 7.07293 49.7656 7.46988 49.6009 7.90467C49.418 8.39354 49.3282 8.91231 49.3361 9.43421C49.3195 10.1142 49.4777 10.787 49.7957 11.3883C50.0861 11.928 50.5226 12.375 51.0551 12.6783C51.6074 12.9867 52.2313 13.1437 52.8637 13.1335V13.1312ZM59.8772 15.624L64.5031 3.24742H67.9069L72.5679 15.6262H69.2618L68.3866 13.117H63.9487L63.0915 15.6262L59.8772 15.624ZM64.6158 10.6646H67.7099L66.1543 6.38558L64.6158 10.6646ZM78.4189 15.8874C77.4925 15.8889 76.5714 15.7488 75.6874 15.4718C74.8648 15.2281 74.1006 14.8191 73.4416 14.2698L74.8204 12.0777C75.1052 12.3734 75.4405 12.616 75.8105 12.794C76.22 12.9975 76.6516 13.1532 77.0968 13.2581C77.5323 13.3644 77.9788 13.4193 78.4271 13.4215C78.936 13.4413 79.442 13.3368 79.9014 13.117C80.0728 13.0406 80.218 12.9158 80.3193 12.7579C80.4206 12.6 80.4735 12.416 80.4715 12.2284C80.4714 12.0714 80.4341 11.9166 80.3627 11.7768C80.2912 11.637 80.1876 11.5161 80.0604 11.4241C79.592 11.1224 79.0719 10.9097 78.5263 10.7966L77.4654 10.4982C76.4332 10.2764 75.482 9.77487 74.7159 9.04847C74.1607 8.44815 73.8595 7.65606 73.8758 6.83847C73.8707 6.30636 73.9919 5.78063 74.2295 5.30446C74.4693 4.83332 74.8072 4.41891 75.2203 4.08904C75.6668 3.73233 76.1745 3.45979 76.7185 3.28473C77.3251 3.08821 77.9596 2.9912 78.5972 2.99747C79.4844 2.98969 80.3668 3.1286 81.2086 3.40858C81.9297 3.63436 82.5921 4.0165 83.1485 4.52775L81.7167 6.64971C81.4745 6.40042 81.1939 6.19159 80.8856 6.03118C80.5439 5.84986 80.1817 5.71033 79.8067 5.61559C79.4226 5.51638 79.0275 5.46624 78.6308 5.46637C78.2859 5.45926 77.9422 5.50969 77.6138 5.61559C77.3548 5.69685 77.1217 5.84481 76.9379 6.04461C76.7773 6.22612 76.6906 6.46115 76.6946 6.70343C76.6886 6.89235 76.7532 7.07673 76.8759 7.22049C77.049 7.39358 77.2571 7.52765 77.4863 7.61369C77.8659 7.77063 78.254 7.90638 78.6487 8.02032L79.7276 8.33891C80.7428 8.57745 81.6857 9.05648 82.477 9.73564C82.7607 10.022 82.9824 10.3636 83.1283 10.7393C83.2743 11.1151 83.3414 11.5168 83.3254 11.9195C83.3392 12.6554 83.1295 13.3781 82.724 13.9922C82.2997 14.61 81.7099 15.0957 81.0221 15.3934C80.1978 15.7454 79.3074 15.9154 78.4114 15.8918L78.4189 15.8874ZM85.3943 15.6225V3.24966H88.3296V15.6262L85.3943 15.6225ZM95.5699 15.8874C94.6435 15.8889 93.7223 15.7488 92.8383 15.4718C92.0157 15.2281 91.2515 14.8191 90.5925 14.2698L91.9713 12.0777C92.2562 12.3734 92.5915 12.616 92.9614 12.794C93.371 12.9975 93.8026 13.1532 94.2477 13.2581C94.6833 13.3644 95.1298 13.4193 95.5781 13.4215C96.0867 13.4412 96.5925 13.3367 97.0516 13.117C97.223 13.0406 97.3682 12.9158 97.4695 12.7579C97.5708 12.6 97.6237 12.416 97.6217 12.2284C97.6216 12.0714 97.5843 11.9166 97.5129 11.7768C97.4414 11.637 97.3378 11.5161 97.2106 11.4241C96.7422 11.1224 96.2221 10.9097 95.6766 10.7966L94.6156 10.4982C93.5834 10.2764 92.6322 9.77487 91.8661 9.04847C91.3109 8.44815 91.0098 7.65606 91.026 6.83847C91.0209 6.30636 91.1421 5.78062 91.3797 5.30446C91.6195 4.83332 91.9574 4.41891 92.3705 4.08904C92.817 3.73233 93.3247 3.45979 93.8687 3.28473C94.4754 3.08822 95.1098 2.99122 95.7474 2.99747C96.6346 2.98969 97.517 3.1286 98.3588 3.40858C99.0799 3.63436 99.7423 4.0165 100.299 4.52775L98.867 6.64971C98.6247 6.40042 98.3441 6.19159 98.0358 6.03118C97.6941 5.84986 97.3319 5.71033 96.9569 5.61559C96.5728 5.51638 96.1777 5.46624 95.781 5.46637C95.4361 5.45926 95.0924 5.50969 94.7641 5.61559C94.505 5.69685 94.2719 5.84481 94.0881 6.04461C93.9276 6.22612 93.8408 6.46115 93.8448 6.70343C93.8388 6.89235 93.9034 7.07673 94.0261 7.22049C94.1992 7.39358 94.4073 7.52765 94.6365 7.61369C95.0161 7.77063 95.4042 7.90638 95.7989 8.02032L96.8778 8.33891C97.893 8.57745 98.8359 9.05648 99.6272 9.73564C99.9109 10.022 100.133 10.3636 100.279 10.7393C100.424 11.1151 100.492 11.5168 100.476 11.9195C100.489 12.6554 100.28 13.3781 99.8742 13.9922C99.4499 14.61 98.8601 15.0957 98.1723 15.3934C97.3483 15.7453 96.4581 15.9153 95.5624 15.8918L95.5699 15.8874Z" fill="#222222"/>
</svg>
